<?xml version="1.0" standalone="no"?>
<!DOCTYPE svg PUBLIC "-//W3C//DTD SVG 20010904//EN"
 "http://www.w3.org/TR/2001/REC-SVG-20010904/DTD/svg10.dtd">
<svg version="1.0" xmlns="http://www.w3.org/2000/svg"
 width="1024.000000pt" height="768.000000pt" viewBox="0 0 1024.000000 768.000000"
 preserveAspectRatio="xMidYMid meet">

<g transform="translate(0.000000,768.000000) scale(0.100000,-0.100000)"
fill="#2D516C" stroke="none">
<path d="M2 4468 l3 -3213 184 -92 c297 -148 445 -187 706 -187 240 1 434 47
649 155 123 62 175 102 287 217 114 117 170 147 269 140 159 -12 299 -140 364
-335 84 -248 47 -504 -105 -730 -101 -149 -130 -243 -115 -367 l7 -56 3995 0
3994 0 0 3050 c0 2474 -2 3050 -13 3050 -17 0 -397 385 -397 402 0 7 92 105
205 217 l205 205 0 378 0 378 -5120 0 -5120 0 2 -3212z m3708 900 l22 -52 -23
-16 c-99 -64 -152 -155 -152 -262 0 -175 142 -307 318 -295 39 2 77 8 86 11
12 5 21 -5 38 -43 11 -27 21 -52 21 -56 0 -10 -53 -27 -113 -35 -288 -42 -536
235 -463 518 20 78 55 139 113 198 39 38 104 82 124 84 4 0 17 -23 29 -52z"/>
</g>
</svg>
