<svg width="596" height="596" viewBox="0 0 596 596" fill="none" xmlns="http://www.w3.org/2000/svg">
<path d="M349.876 470.804V510.367H336.287L365.575 544.482L393.05 511.07H379.163V470.804H349.876Z" fill="#EBEBEB"/>
<path d="M401.692 172.84V186.763H396.912L407.223 198.778L416.902 187.013H412.003V172.84H401.692Z" fill="#EBEBEB"/>
<path d="M525.314 302.005V330.601H515.492L536.662 355.264L556.521 331.102H546.484V302.005H525.314Z" fill="#EBEBEB"/>
<path d="M72.5213 417.558V446.154H62.6992L83.8691 470.804L103.74 446.654H93.6912V417.558H72.5213Z" fill="#EBEBEB"/>
<path d="M248.342 464.296V485.633H241.011L256.817 504.037L271.633 486.014H264.147V464.296H248.342Z" fill="#EBEBEB"/>
<path d="M200.602 115.267C201.603 108.007 191.352 102.035 183.651 101.416C179.992 101.118 176.178 101.69 172.697 100.474C165.163 97.8514 162.148 88.1128 154.817 84.9778C149.322 82.6534 143.004 84.7156 137.664 87.3618C132.324 90.0081 127.079 93.4291 121.119 93.8105C115.946 94.1324 110.32 92.2133 105.79 94.7403C102.417 96.6356 100.64 100.521 97.5294 102.81C94.4182 105.099 90.5204 105.54 86.8014 105.742C83.0823 105.945 79.113 105.981 75.6681 107.554C72.2232 109.128 69.3862 112.775 70.1014 116.482L200.602 115.267Z" fill="#F5F5F5"/>
<path d="M558.476 250.701C559.346 244.384 550.43 239.187 543.731 238.65C540.536 238.388 537.223 238.877 534.195 237.828C527.651 235.539 525.028 227.1 518.627 224.382C513.859 222.356 508.34 224.156 503.715 226.492C499.09 228.828 494.489 231.761 489.316 232.094C484.81 232.38 479.923 230.712 475.978 232.905C473.045 234.55 471.508 237.935 468.826 239.926C466.144 241.916 462.723 242.31 459.445 242.477C456.167 242.644 452.757 242.691 449.766 244.05C446.774 245.409 444.294 248.592 444.914 251.822L558.476 250.701Z" fill="#F5F5F5"/>
<path d="M266.674 58.4081C267.103 55.3208 262.741 52.7818 259.463 52.5196C257.898 52.5779 256.333 52.4417 254.802 52.1143C251.596 50.9938 250.32 46.8576 247.185 45.5345C244.801 44.557 242.155 45.4272 239.89 46.5715C237.625 47.7158 235.384 49.1462 232.857 49.3131C230.652 49.4561 228.256 48.6337 226.325 49.7065C224.895 50.517 224.144 52.162 222.821 53.1394C221.435 53.9647 219.843 54.3782 218.231 54.3314C216.607 54.2801 214.988 54.5431 213.463 55.1062C212.709 55.395 212.069 55.9206 211.64 56.6041C211.21 57.2876 211.013 58.0921 211.079 58.8968L266.674 58.4081Z" fill="#E0E0E0"/>
<path d="M552.742 515.767C553.529 510.081 545.507 505.42 539.487 504.931C536.614 504.693 533.634 505.134 530.917 504.192C525.028 502.13 522.668 494.525 516.923 492.093C512.62 490.282 507.673 491.903 503.501 494.001C499.329 496.099 495.216 498.769 490.556 499.031C486.515 499.293 482.116 497.839 478.564 499.77C475.93 501.236 474.547 504.288 472.115 506.076C469.684 507.864 466.62 508.209 463.664 508.364C460.708 508.519 457.704 508.555 454.962 509.795C452.221 511.034 450.051 513.871 450.612 516.768L552.742 515.767Z" fill="#E0E0E0"/>
<path d="M253.395 170.73L244.205 154.531C249.886 145.308 251.912 134.294 249.885 123.654C247.858 113.014 241.924 103.516 233.25 97.0286C224.576 90.541 213.789 87.5325 203.009 88.5943C192.23 89.6562 182.237 94.7116 174.996 102.767C167.754 110.822 163.788 121.295 163.875 132.126C163.963 142.958 168.1 153.365 175.471 161.301C182.842 169.238 192.916 174.131 203.711 175.017C214.506 175.904 225.243 172.721 233.811 166.093L253.395 170.73Z" fill="#FAFAFA"/>
<path d="M253.395 170.73L233.751 166.26H233.525L233.668 166.069L233.894 166.284C227.853 170.997 220.673 174.028 213.082 175.069C210.804 175.39 208.502 175.506 206.204 175.415C205.012 175.415 203.82 175.319 202.628 175.224L198.969 174.664C193.141 173.55 187.603 171.255 182.696 167.921C177.789 164.586 173.616 160.281 170.436 155.273C167.256 150.264 165.134 144.658 164.203 138.798C163.272 132.939 163.55 126.95 165.02 121.203C166.655 114.586 169.846 108.456 174.33 103.323C178.861 98.0738 184.583 93.9865 191.018 91.4025C197.196 88.9589 203.845 87.9364 210.471 88.4106C216.747 88.8357 222.852 90.6387 228.351 93.6912C238.215 99.1822 245.59 108.255 248.949 119.033C250.285 123.616 250.92 128.374 250.833 133.146C250.593 140.744 248.357 148.144 244.348 154.602V154.447L253.407 170.73L244.086 154.602V154.519V154.447C248.028 148 250.207 140.63 250.403 133.075C250.468 128.352 249.821 123.647 248.484 119.117C245.139 108.467 237.834 99.507 228.077 94.0845C222.657 91.0826 216.642 89.3122 210.459 88.8993C203.925 88.4341 197.369 89.4486 191.28 91.8674C184.911 94.4327 179.253 98.4924 174.783 103.704C170.37 108.756 167.223 114.787 165.605 121.298C164.028 127.539 163.853 134.053 165.092 140.37C166.285 146.341 168.744 151.986 172.304 156.927C178.721 165.843 188.287 171.987 199.064 174.115L202.64 174.676C203.832 174.783 205.024 174.819 206.216 174.878C208.489 174.975 210.767 174.872 213.022 174.568C220.552 173.571 227.685 170.607 233.703 165.974L234.657 165.235L233.918 166.189L233.823 165.95L253.395 170.73Z" fill="#263238"/>
<path d="M219.96 109.282H191.876C190.52 109.282 189.421 110.382 189.421 111.738V153.243C189.421 154.6 190.52 155.699 191.876 155.699H219.96C221.316 155.699 222.415 154.6 222.415 153.243V111.738C222.415 110.382 221.316 109.282 219.96 109.282Z" fill="#263238"/>
<path d="M220.722 112.072H190.946V146.759H220.722V112.072Z" fill="#FAFAFA"/>
<path d="M205.918 153.708C207.3 153.708 208.421 152.588 208.421 151.205C208.421 149.823 207.3 148.702 205.918 148.702C204.535 148.702 203.415 149.823 203.415 151.205C203.415 152.588 204.535 153.708 205.918 153.708Z" fill="#4882AD"/>
<path d="M210.09 122.645L221.08 135.614L231.367 122.645H226.027V104.801L215.347 104.669L215.478 122.669L210.09 122.645Z" fill="#5BA3D9"/>
<path d="M210.769 127.544C209.363 129.458 207.796 131.248 206.085 132.896C204.524 134.68 202.813 136.327 200.971 137.819C202.367 135.9 203.931 134.109 205.644 132.467C207.204 130.678 208.919 129.03 210.769 127.544Z" fill="#263238"/>
<path d="M208.6 125.958C207.889 127.077 207.013 128.082 206.001 128.938C205.138 129.929 204.124 130.777 202.998 131.454C203.703 130.331 204.58 129.326 205.596 128.474C206.458 127.481 207.472 126.632 208.6 125.958Z" fill="#263238"/>
<path d="M479.649 121.834V141.991H472.724L487.659 159.382L501.665 142.349H494.585V121.834H479.649Z" fill="#5BA3D9"/>
<path opacity="0.3" d="M479.649 121.834V141.991H472.724L487.659 159.382L501.665 142.349H494.585V121.834H479.649Z" fill="black"/>
<path d="M528.33 76.8602C526.475 69.6443 522.645 63.0882 517.271 57.9278C511.897 52.7674 505.19 49.2069 497.905 47.6458C490.62 46.0848 483.044 46.585 476.027 49.0903C469.01 51.5956 462.83 56.0069 458.181 61.8291C456.9 61.671 455.61 61.5914 454.319 61.5907C449.811 61.3818 445.307 62.0894 441.08 63.6707C436.853 65.252 432.991 67.6741 429.727 70.7906C426.462 73.9071 423.864 77.6532 422.089 81.8025C420.314 85.9517 419.398 90.4179 419.398 94.9309C419.398 99.444 420.314 103.91 422.089 108.059C423.864 112.209 426.462 115.955 429.727 119.071C432.991 122.188 436.853 124.61 441.08 126.191C445.307 127.772 449.811 128.48 454.319 128.271H526.924C533.633 128.285 540.082 125.676 544.896 121.002C549.709 116.328 552.506 109.958 552.689 103.251C552.873 96.5445 550.428 90.0314 545.878 85.1011C541.327 80.1708 535.03 77.2136 528.33 76.8602Z" fill="#5BA3D9"/>
<path d="M536.007 119.284C535.947 119.188 537.389 118.294 539.297 116.375C541.8 113.89 543.72 110.881 544.92 107.565C546.119 104.248 546.568 100.707 546.234 97.1958C545.984 94.5019 545.459 92.8808 545.566 92.8569C545.762 93.2037 545.907 93.5771 545.996 93.9655C546.304 95.0073 546.531 96.0713 546.675 97.1481C547.141 100.732 546.743 104.376 545.513 107.775C544.283 111.174 542.258 114.229 539.606 116.685C538.815 117.432 537.962 118.109 537.056 118.711C536.74 118.958 536.385 119.151 536.007 119.284Z" fill="#263238"/>
<path d="M459.111 71.5798C459.111 71.6871 457.263 71.2222 454.283 71.1626C450.395 71.0584 446.532 71.8118 442.968 73.3692C439.403 74.9267 436.226 77.25 433.661 80.1741C431.683 82.4151 430.801 84.0719 430.693 84.0004C430.832 83.5778 431.028 83.1766 431.277 82.8084C431.884 81.7757 432.569 80.7913 433.328 79.8642C435.856 76.7959 439.072 74.3669 442.715 72.7743C446.358 71.1816 450.326 70.4702 454.295 70.6977C455.498 70.7608 456.694 70.9203 457.871 71.1745C458.3 71.2556 458.717 71.3918 459.111 71.5798Z" fill="#263238"/>
<path d="M481.628 55.1061C481.628 55.2253 480.305 55.3088 478.254 55.8452C475.58 56.5791 473.06 57.7906 470.816 59.4212C468.586 61.0469 466.671 63.0668 465.166 65.3812C463.974 67.1572 463.521 68.3969 463.414 68.3612C463.454 68.0474 463.542 67.7417 463.676 67.4552C463.975 66.6525 464.346 65.8785 464.785 65.1428C465.422 64.022 466.165 62.9643 467.002 61.984C468.044 60.8196 469.202 59.7651 470.459 58.8371C471.726 57.9275 473.084 57.1525 474.512 56.5246C475.684 56.0153 476.901 55.6162 478.147 55.3326C478.983 55.1498 479.832 55.0382 480.686 54.9988C481.004 54.9853 481.321 55.0215 481.628 55.1061Z" fill="#263238"/>
<path d="M512.846 127.985C512.846 128.164 503.048 128.295 490.961 128.295C478.874 128.295 469.064 128.164 469.064 127.985C469.064 127.806 478.862 127.675 490.961 127.675C503.06 127.675 512.846 127.818 512.846 127.985Z" fill="#263238"/>
<path d="M515.302 188.05C515.135 188.05 514.992 180.016 514.992 170.17C514.992 160.324 515.135 152.29 515.302 152.29C515.468 152.29 515.623 160.312 515.623 170.17C515.623 180.028 515.48 188.05 515.302 188.05Z" fill="#263238"/>
<path d="M522.311 203.713C522.144 203.713 522.001 193.378 522.001 180.624C522.001 167.869 522.144 157.535 522.311 157.535C522.478 157.535 522.633 167.869 522.633 180.624C522.633 193.378 522.49 203.713 522.311 203.713Z" fill="#263238"/>
<path d="M74.1547 224.203V236.552H69.9111L79.0538 247.209L87.6362 236.779H83.2973V224.203H74.1547Z" fill="#5BA3D9"/>
<path opacity="0.3" d="M74.1547 224.203V236.552H69.9111L79.0538 247.209L87.6362 236.779H83.2973V224.203H74.1547Z" fill="black"/>
<path d="M103.978 196.68C102.841 192.259 100.494 188.243 97.2008 185.081C93.9079 181.92 89.7993 179.738 85.3358 178.782C80.8724 177.825 76.2306 178.13 71.9311 179.664C67.6317 181.198 63.8447 183.9 60.9949 187.466C60.2034 187.375 59.4075 187.327 58.6109 187.323C55.8871 187.257 53.1777 187.737 50.6421 188.734C48.1064 189.73 45.7958 191.224 43.8461 193.128C41.8964 195.031 40.3471 197.305 39.2893 199.815C38.2315 202.326 37.6865 205.023 37.6865 207.748C37.6865 210.472 38.2315 213.169 39.2893 215.68C40.3471 218.191 41.8964 220.465 43.8461 222.368C45.7958 224.271 48.1064 225.765 50.6421 226.762C53.1777 227.759 55.8871 228.239 58.6109 228.173H103.108C107.213 228.174 111.156 226.573 114.098 223.711C117.041 220.85 118.751 216.953 118.864 212.85C118.978 208.747 117.485 204.761 114.705 201.742C111.925 198.722 108.077 196.906 103.978 196.68Z" fill="#5BA3D9"/>
<path d="M108.675 222.642C108.675 222.559 109.485 221.986 110.63 220.806C112.127 219.273 113.285 217.441 114.027 215.43C114.738 213.409 115.022 211.262 114.861 209.125C114.73 207.48 114.432 206.478 114.528 206.455C114.964 207.265 115.224 208.159 115.29 209.077C115.602 211.286 115.368 213.538 114.61 215.637C113.851 217.735 112.591 219.616 110.94 221.116C110.3 221.778 109.529 222.298 108.675 222.642Z" fill="#263238"/>
<path d="M61.5673 193.414C61.5673 193.521 60.3753 193.271 58.5992 193.247C56.2327 193.203 53.8846 193.671 51.716 194.62C49.5474 195.568 47.6096 196.975 46.0355 198.742C44.8435 200.089 44.2475 201.126 44.1641 201.031C44.4992 200.078 45.0221 199.203 45.7017 198.456C47.246 196.549 49.2256 195.04 51.4741 194.057C53.7226 193.074 56.1743 192.645 58.623 192.806C59.6348 192.813 60.6353 193.02 61.5673 193.414Z" fill="#263238"/>
<path d="M75.3586 183.33C74.6864 183.549 74.0017 183.728 73.3084 183.866C71.6941 184.324 70.1729 185.062 68.8145 186.047C67.4621 187.032 66.2888 188.242 65.3458 189.623C64.9892 190.246 64.5909 190.843 64.1538 191.411C64.2571 190.69 64.522 190.002 64.9286 189.397C65.7898 187.869 66.9735 186.547 68.3973 185.523C69.8162 184.484 71.4426 183.765 73.1653 183.413C73.88 183.215 74.631 183.187 75.3586 183.33Z" fill="#263238"/>
<path d="M94.4901 227.982C94.4901 228.149 88.5301 228.292 81.0801 228.292C73.6301 228.292 67.6582 228.149 67.6582 227.982C67.6582 227.815 73.6659 227.672 81.0563 227.672C88.4467 227.672 94.4901 227.803 94.4901 227.982Z" fill="#263238"/>
<path d="M95.9918 264.767C95.6847 261.116 95.5812 257.451 95.6818 253.789C95.5811 250.122 95.6845 246.453 95.9918 242.799C96.3062 246.453 96.4096 250.123 96.3017 253.789C96.4094 257.451 96.3059 261.117 95.9918 264.767Z" fill="#263238"/>
<path d="M100.283 274.375C100.116 274.375 99.9731 268.033 99.9731 260.226C99.9731 252.418 100.116 246.077 100.283 246.077C100.45 246.077 100.593 252.418 100.593 260.226C100.593 268.033 100.462 274.375 100.283 274.375Z" fill="#263238"/>
<path d="M289.99 432.35V490.127H270.143L312.924 539.952L353.059 491.14H332.771V432.35H289.99Z" fill="#5BA3D9"/>
<path opacity="0.3" d="M289.99 432.35V490.127H270.143L312.924 539.952L353.059 491.14H332.771V432.35H289.99Z" fill="black"/>
<path d="M429.502 303.459C424.178 282.783 413.2 263.999 397.798 249.214C382.396 234.428 363.18 224.226 342.304 219.752C321.428 215.277 299.718 216.707 279.609 223.882C259.501 231.056 241.788 243.69 228.459 260.368C224.788 259.927 221.095 259.696 217.397 259.677C192.052 259.677 167.746 269.745 149.824 287.667C131.903 305.588 121.834 329.895 121.834 355.24C121.834 380.584 131.903 404.891 149.824 422.813C167.746 440.734 192.052 450.802 217.397 450.802H425.473C444.686 450.816 463.146 443.329 476.921 429.935C490.696 416.541 498.699 398.299 499.224 379.092C499.749 359.886 492.756 341.234 479.733 327.107C466.71 312.98 448.687 304.495 429.502 303.459Z" fill="#5BA3D9"/>
<path d="M240.963 320.85C240.899 320.646 240.867 320.433 240.868 320.219C240.868 319.742 240.796 319.146 240.748 318.419C240.748 318.013 240.748 317.584 240.677 317.108C240.605 316.631 240.558 316.118 240.498 315.57C240.343 314.461 240.248 313.186 239.938 311.827C239.807 311.136 239.664 310.409 239.509 309.658C239.354 308.907 239.115 308.156 238.913 307.357C238.543 305.748 237.923 304.091 237.327 302.339C235.895 298.602 234.111 295.01 231.999 291.611C229.818 288.233 227.324 285.068 224.549 282.158C223.226 280.871 221.986 279.607 220.699 278.582C220.067 278.058 219.507 277.521 218.875 277.056L217.099 275.745C216.002 274.875 214.894 274.243 213.964 273.635L212.653 272.801L211.461 272.181L209.887 271.287C209.692 271.2 209.511 271.083 209.351 270.941C209.553 271.003 209.748 271.082 209.935 271.18L211.58 271.967L212.772 272.551C213.189 272.777 213.63 273.051 214.119 273.337C215.228 273.963 216.302 274.647 217.337 275.388L219.137 276.675C219.769 277.128 220.329 277.676 221.009 278.189C222.378 279.311 223.687 280.505 224.931 281.765C230.665 287.563 235.07 294.538 237.84 302.208C238.445 303.872 238.962 305.567 239.389 307.285C239.58 308.096 239.819 308.859 239.962 309.669C240.105 310.48 240.224 311.159 240.343 311.851C240.567 313.105 240.726 314.37 240.82 315.641C240.82 316.202 240.927 316.714 240.951 317.203C240.975 317.692 240.951 318.109 240.951 318.514V320.326C240.966 320.5 240.97 320.676 240.963 320.85Z" fill="#263238"/>
<path d="M201.866 302.375C201.782 302.458 200.531 301.183 198.29 299.526C192.35 295.114 185.293 292.455 177.918 291.849C175.093 291.611 173.329 291.718 173.329 291.611C173.716 291.497 174.118 291.441 174.521 291.444C175.648 291.368 176.779 291.368 177.906 291.444C185.423 291.799 192.637 294.509 198.528 299.192C199.417 299.888 200.258 300.645 201.043 301.457C201.352 301.73 201.628 302.038 201.866 302.375Z" fill="#263238"/>
<path d="M245.635 383.943C245.009 384.007 244.378 384.007 243.752 383.943C242.56 383.943 240.772 383.943 238.603 383.836C234.264 383.681 228.268 383.323 221.664 382.644C215.061 381.965 209.113 381.178 204.821 380.475C202.676 380.129 200.947 379.831 199.755 379.592C199.128 379.503 198.51 379.359 197.908 379.163C198.539 379.182 199.169 379.246 199.791 379.354L204.893 380.045C209.184 380.629 215.132 381.38 221.724 382.024C228.316 382.668 234.299 383.097 238.626 383.359L243.752 383.669C244.385 383.716 245.015 383.808 245.635 383.943Z" fill="#263238"/>
<path d="M426.379 302.875C426.159 302.925 425.936 302.953 425.711 302.959L423.792 303.09C422.969 303.09 421.944 303.185 420.776 303.34C419.608 303.495 418.249 303.567 416.783 303.829L414.47 304.198C413.672 304.329 412.849 304.532 411.991 304.699C410.275 305.021 408.475 305.533 406.567 306.034C398.344 308.373 390.549 312.015 383.478 316.822C381.869 317.954 380.32 319.003 378.973 320.123C378.281 320.672 377.602 321.172 376.994 321.697L375.23 323.235C374.038 324.188 373.144 325.166 372.286 325.976C371.427 326.787 370.724 327.526 370.152 328.146L368.829 329.528C368.679 329.698 368.511 329.85 368.328 329.981C368.443 329.788 368.579 329.609 368.733 329.445C369.055 329.052 369.472 328.575 369.925 327.979C370.378 327.383 371.117 326.572 371.999 325.738C372.882 324.903 373.752 323.89 374.884 322.913L376.636 321.339C377.244 320.791 377.924 320.278 378.603 319.718C379.95 318.526 381.5 317.501 383.109 316.345C390.233 311.442 398.131 307.771 406.472 305.486C408.391 304.997 410.215 304.496 411.943 304.198C412.814 304.031 413.648 303.841 414.459 303.722L416.843 303.4C418.321 303.161 419.679 303.102 420.86 302.994C421.874 302.895 422.892 302.847 423.911 302.851H425.83C426.013 302.84 426.197 302.848 426.379 302.875Z" fill="#263238"/>
<path d="M420.49 451.446C420.49 451.625 374.42 451.756 317.609 451.756C260.798 451.756 214.715 451.625 214.715 451.446C214.715 451.267 260.774 451.136 317.609 451.136C374.443 451.136 420.49 451.279 420.49 451.446Z" fill="#263238"/>
<path d="M172.017 492.797C171.851 492.797 171.708 484.178 171.708 473.558C171.708 462.937 171.851 454.307 172.017 454.307C172.184 454.307 172.327 462.913 172.327 473.558C172.327 484.202 172.184 492.797 172.017 492.797Z" fill="#263238"/>
<path d="M179.837 528.294C179.67 528.294 179.527 516.172 179.527 501.224C179.527 486.276 179.67 474.154 179.837 474.154C180.004 474.154 180.147 486.265 180.147 501.224C180.147 516.184 179.992 528.294 179.837 528.294Z" fill="#263238"/>
<g opacity="0.3">
<path d="M455.893 341.746C453.509 328.146 435.474 314.33 419.93 317.441C406.389 320.135 391.811 323.282 378.424 326.668C372.894 328.062 367.172 321.351 362.547 318.026C360.163 316.285 358.685 313.496 357.171 310.874C348.553 296.224 334.368 285.234 318.527 279.095C302.685 272.956 285.258 271.49 268.367 273.337C255.255 274.78 240.951 279.297 234.812 290.979C232.357 295.687 231.379 301.338 227.577 305.033C222.499 309.944 214.465 309.55 207.849 312.042C194.618 317.024 187.919 335.941 189.588 349.971C191.257 364.001 203.737 382.084 229.973 384.968C229.973 384.968 325.011 385.803 371.94 388.079C388.211 388.866 393.122 386.625 409.393 386.196C438.108 385.505 460.184 366.695 455.893 341.746Z" fill="black"/>
</g>
<path d="M281.312 410.107C282.91 409.702 284.698 408.057 286.08 407.175C289.466 404.998 292.815 402.761 296.129 400.464C284.209 397.007 274.136 394.278 262.24 390.928C261.832 395.697 262.276 400.5 263.552 405.113C264.648 408.796 266.746 412.718 270.465 413.695C273.838 414.578 277.271 412.718 280.251 410.882L281.074 410.37" fill="#E0E0E0"/>
<path d="M283.35 403.528C283.171 403.528 283.243 401.966 282.826 400.143C282.409 398.319 281.634 396.96 281.848 396.865C282.627 397.766 283.172 398.846 283.434 400.008C283.696 401.17 283.667 402.379 283.35 403.528Z" fill="#263238"/>
<path d="M285.913 402.896C285.791 402.011 285.727 401.119 285.723 400.226C285.538 399.353 285.414 398.469 285.353 397.58C285.903 398.339 286.244 399.23 286.343 400.163C286.441 401.096 286.293 402.038 285.913 402.896Z" fill="#263238"/>
<path d="M270.202 393.146C270.31 393.146 269.964 394.337 269.94 396.376C269.902 398.965 270.548 401.518 271.812 403.778C273.02 406.069 274.673 408.095 276.675 409.738C277.569 410.333 278.515 410.848 279.5 411.276C279.199 411.293 278.898 411.244 278.618 411.133C277.839 410.9 277.099 410.55 276.425 410.096C274.275 408.501 272.512 406.444 271.263 404.076C269.947 401.724 269.339 399.042 269.511 396.352C269.55 395.546 269.673 394.747 269.881 393.968C269.934 393.676 270.043 393.396 270.202 393.146Z" fill="#4882AD"/>
<path d="M279.5 395.899C280.544 398.102 281.198 400.469 281.431 402.896C281.852 405.285 281.852 407.73 281.431 410.119C281.24 410.119 281.372 406.889 280.835 402.967C280.299 399.046 279.309 395.959 279.5 395.899Z" fill="#4882AD"/>
<path d="M276.806 408.582C276.097 408.177 275.458 407.662 274.911 407.056C273.457 405.717 272.247 404.136 271.335 402.384C270.424 400.605 270.047 398.602 270.25 396.614C270.285 395.784 270.558 394.981 271.037 394.302C271.132 394.302 270.775 395.196 270.691 396.686C270.622 398.577 271.032 400.455 271.883 402.145C272.774 403.837 273.888 405.401 275.197 406.794C275.79 407.336 276.329 407.935 276.806 408.582Z" fill="#5BA3D9"/>
<path d="M293.471 402.121C292.186 403.162 290.776 404.039 289.275 404.732C287.87 405.601 286.365 406.298 284.793 406.806C286.072 405.753 287.482 404.871 288.989 404.183C290.392 403.313 291.897 402.621 293.471 402.121Z" fill="#5BA3D9"/>
<path d="M274.494 408.749C273.505 409.826 272.259 410.634 270.872 411.097C269.486 411.56 268.004 411.662 266.567 411.395C266.567 411.216 268.486 411.252 270.679 410.501C272.873 409.75 274.386 408.606 274.494 408.749Z" fill="#4882AD"/>
<path d="M270.453 402.646C270.453 402.824 268.844 403.051 267.056 403.838C265.268 404.624 264.016 405.721 263.885 405.59C264.577 404.523 265.598 403.711 266.794 403.277C267.909 402.665 269.197 402.443 270.453 402.646Z" fill="#4882AD"/>
<path d="M269.666 397.222C268.382 396.779 267.072 396.413 265.745 396.125C264.387 396.055 263.026 396.055 261.668 396.125C262.943 395.449 264.416 395.243 265.828 395.541C267.269 395.618 268.632 396.216 269.666 397.222Z" fill="#4882AD"/>
<path d="M360.926 379.986C360.998 380.093 316.214 390.892 316.214 390.892L309.634 375.48L312.65 370.819C312.65 370.819 331.579 366.54 346.98 357.826L360.926 379.986Z" fill="#FFBE9D"/>
<path d="M255.839 336.072C255.839 336.072 253.789 333.08 245.111 328.825C237.899 325.249 219.388 322.341 211.89 336.823C204.392 351.306 210.15 373.525 222.618 378.269C235.086 383.013 255.839 389.51 264.338 392.251C272.837 394.993 300.789 401.99 300.789 401.99L312.28 395.255L313.639 373.799C313.639 373.799 297.797 357.528 284.316 353.035C270.834 348.541 255.839 336.072 255.839 336.072Z" fill="#263238"/>
<path d="M229.973 325.964C230.092 325.785 242.679 326.143 251.87 329.612C255.327 330.911 258.712 332.306 258.712 332.306L263.79 317.835L301.85 305.152H343.987L357.695 332.306V333.676C357.695 333.676 374.157 333.951 381.285 330.661C388.413 327.371 410.62 317.763 416.378 315.844C422.135 313.925 447.918 310.242 453.675 325.928C459.433 341.615 455.356 357.981 445.725 363.965C441.183 366.778 364.561 386.613 364.561 386.613L346.455 357.814C346.455 357.814 318.872 371.487 309.634 369.997C300.396 368.507 229.973 325.964 229.973 325.964Z" fill="#263238"/>
<path d="M307.691 312.149C307.772 312.329 307.836 312.517 307.882 312.709C307.989 313.138 308.132 313.675 308.299 314.318C308.645 315.725 309.086 317.787 309.491 320.338C310.421 325.44 311.351 332.556 312.066 340.435C312.781 348.314 313.162 355.466 313.317 360.699C313.401 363.286 313.425 365.384 313.425 366.838C313.425 367.505 313.425 368.03 313.425 368.507C313.457 368.7 313.457 368.897 313.425 369.091C313.386 368.898 313.362 368.703 313.353 368.507C313.353 368.054 313.353 367.505 313.27 366.838C313.186 365.3 313.091 363.262 312.96 360.723C312.697 355.55 312.233 348.41 311.529 340.53C310.826 332.651 309.956 325.571 309.145 320.457C308.752 317.906 308.371 315.844 308.096 314.426C307.977 313.77 307.87 313.234 307.786 312.781C307.72 312.577 307.688 312.363 307.691 312.149Z" fill="#4882AD"/>
<path d="M357.278 334.344C357.278 334.511 347.742 335.715 335.93 337.026C324.117 338.337 314.545 339.267 314.474 339.088C314.402 338.909 324.01 337.717 335.822 336.406C347.635 335.095 357.254 334.177 357.278 334.344Z" fill="#4882AD"/>
<path d="M350.984 334.404C350.529 334.424 350.072 334.388 349.625 334.296C348.755 334.177 347.504 334.022 345.942 333.867C341.893 333.426 337.82 333.239 333.748 333.307C329.679 333.386 325.619 333.712 321.59 334.284L317.93 334.845C317.484 334.946 317.029 335.002 316.571 335.011C316.99 334.825 317.43 334.692 317.882 334.618C318.729 334.392 319.969 334.129 321.518 333.855C329.608 332.442 337.868 332.297 346.002 333.426C347.551 333.653 348.803 333.867 349.661 334.058C350.113 334.129 350.556 334.244 350.984 334.404Z" fill="#4882AD"/>
<path d="M356.813 332.759C354.201 331.476 351.465 330.462 348.648 329.731C345.783 329.205 342.871 328.978 339.958 329.052C340.782 328.764 341.649 328.619 342.521 328.622C346.74 328.379 350.944 329.307 354.668 331.304C355.456 331.672 356.18 332.163 356.813 332.759Z" fill="#4882AD"/>
<path d="M321.721 356.324C320.638 357.41 319.315 358.227 317.859 358.708C316.482 359.372 314.965 359.695 313.437 359.65C313.437 359.471 315.356 359.042 317.62 358.124C319.885 357.207 321.614 356.181 321.721 356.324Z" fill="#4882AD"/>
<path d="M319.695 361.665C317.721 362.722 315.438 363.051 313.246 362.594C314.296 362.304 315.376 362.132 316.464 362.082C317.523 361.827 318.606 361.687 319.695 361.665Z" fill="#4882AD"/>
<path d="M384.456 331.71C384.282 331.855 384.095 331.983 383.896 332.091L382.239 333.081L376.064 336.657L355.586 348.171L335.012 359.531L328.742 362.916L327.013 363.81C326.815 363.92 326.608 364.012 326.394 364.084C326.565 363.936 326.753 363.808 326.954 363.703L328.623 362.702L334.797 359.126L355.276 347.611L375.85 336.251L382.12 332.878L383.836 331.984C384.027 331.861 384.236 331.769 384.456 331.71Z" fill="#4882AD"/>
<path d="M416.604 325.642C416.351 325.725 416.092 325.789 415.829 325.833L413.612 326.286C411.681 326.691 408.904 327.335 405.519 328.289C396.716 330.851 388.175 334.24 380.01 338.409C370.402 343.177 362.13 348.302 356.074 351.962L348.922 356.324L346.967 357.516C346.743 357.658 346.508 357.782 346.264 357.886C346.462 357.705 346.677 357.545 346.908 357.409L348.791 356.146C350.436 355.061 352.82 353.499 355.8 351.616C361.76 347.849 370.104 342.712 379.7 337.872C387.895 333.684 396.493 330.337 405.364 327.883C408.785 326.977 411.586 326.405 413.529 326.083C414.494 325.893 415.257 325.809 415.77 325.738C416.043 325.671 416.323 325.639 416.604 325.642Z" fill="#4882AD"/>
<path d="M435.473 320.219C435.473 320.326 434.091 320.219 431.897 320.219C429.007 320.305 426.138 320.737 423.351 321.506C420.568 322.284 417.887 323.389 415.364 324.796C413.421 325.893 412.301 326.703 412.241 326.62C412.182 326.536 412.468 326.346 412.956 325.952C413.651 325.398 414.379 324.889 415.138 324.427C417.637 322.874 420.347 321.69 423.184 320.91C426.017 320.125 428.946 319.744 431.885 319.778C432.775 319.786 433.662 319.85 434.544 319.968C434.864 320.007 435.177 320.091 435.473 320.219Z" fill="#4882AD"/>
<path d="M428.846 325.261C428.846 325.44 425.651 325.023 421.694 325.166C417.737 325.309 414.661 325.929 414.625 325.75C416.885 324.938 419.27 324.535 421.67 324.558C424.085 324.366 426.515 324.604 428.846 325.261Z" fill="#4882AD"/>
<path d="M415.019 320.398C415.102 320.565 412.361 322.019 409.309 324.296C406.258 326.572 404.053 328.766 403.921 328.634C405.296 326.738 406.995 325.1 408.94 323.795C410.755 322.32 412.812 321.171 415.019 320.398Z" fill="#4882AD"/>
<path d="M455.344 333.998C455.304 334.084 455.261 334.168 455.213 334.249L454.819 334.952C454.45 335.584 453.902 336.478 453.103 337.586C450.866 340.757 448.161 343.57 445.081 345.93C440.492 349.36 435.534 352.267 430.3 354.596C424.435 357.302 417.748 359.686 410.739 362.142L374.812 374.717L363.894 378.448L360.926 379.437L360.139 379.688C360.051 379.722 359.959 379.742 359.865 379.747L360.115 379.628L360.878 379.318L363.822 378.222L374.669 374.3L410.537 361.557C417.546 359.102 424.221 356.789 430.074 354.072C435.28 351.782 440.223 348.936 444.819 345.585C447.902 343.272 450.643 340.536 452.96 337.455C453.771 336.37 454.367 335.488 454.76 334.892L455.213 334.213C455.3 334.062 455.344 333.99 455.344 333.998Z" fill="#4882AD"/>
<path d="M311.005 396.018C310.709 395.933 310.418 395.829 310.135 395.708L307.679 394.719C305.557 393.849 302.494 392.549 298.739 390.893C291.218 387.591 280.859 382.87 269.654 377.375C258.449 371.88 248.353 366.647 241.237 362.475C237.661 360.425 234.848 358.685 232.893 357.433L230.688 355.967C230.424 355.81 230.176 355.626 229.949 355.419C230.23 355.544 230.501 355.691 230.759 355.86L233.012 357.231C234.979 358.423 237.84 360.103 241.428 362.082C248.58 366.099 258.664 371.296 269.905 376.815C281.145 382.334 291.432 387.09 298.894 390.487L307.774 394.552L310.158 395.637C310.453 395.735 310.736 395.863 311.005 396.018Z" fill="#4882AD"/>
<path d="M232.929 333.486C233.246 333.207 233.604 332.978 233.99 332.806C234.994 332.273 236.038 331.818 237.113 331.448C240.694 330.211 244.508 329.803 248.27 330.256C252.027 330.615 255.687 331.657 259.069 333.331C260.079 333.863 261.023 334.511 261.882 335.262C262.215 335.515 262.509 335.816 262.753 336.156C261.511 335.258 260.213 334.442 258.867 333.712C255.471 332.184 251.846 331.225 248.139 330.875C244.468 330.427 240.745 330.752 237.208 331.829C234.526 332.699 232.976 333.593 232.929 333.486Z" fill="#4882AD"/>
<path d="M313.627 373.811C313.42 373.697 313.232 373.552 313.067 373.382L311.541 372.083C310.218 370.891 308.263 369.341 305.832 367.386C300.968 363.489 294.102 358.268 286.533 352.486L281.026 348.255C279.226 346.92 277.45 345.775 275.638 344.679C272.062 342.569 268.844 340.769 266.257 338.993C264.188 337.63 262.259 336.065 260.5 334.32C260.022 333.852 259.568 333.358 259.141 332.842C258.975 332.675 258.83 332.486 258.712 332.282C258.712 332.282 259.391 332.973 260.667 334.153C262.475 335.811 264.425 337.307 266.496 338.623C269.094 340.34 272.372 342.092 275.936 344.19C277.712 345.251 279.512 346.395 281.384 347.766C283.255 349.137 284.96 350.555 286.903 351.998C294.472 357.779 301.302 363.047 306.106 367.053C308.49 369.043 310.433 370.7 311.696 371.892C312.352 372.488 312.829 372.965 313.151 373.299C313.325 373.454 313.485 373.626 313.627 373.811Z" fill="#4882AD"/>
<path d="M282.194 344.095C283.638 344.543 285.054 345.072 286.438 345.68C289.048 346.693 292.66 348.064 296.725 349.316C300.79 350.567 304.509 351.592 307.214 352.26C308.696 352.581 310.161 352.979 311.601 353.452C311.2 353.469 310.799 353.429 310.409 353.333C309.634 353.225 308.514 353.023 307.143 352.737C303.569 351.991 300.036 351.059 296.558 349.947C293.075 348.85 289.649 347.577 286.295 346.133C285.019 345.573 283.982 345.096 283.279 344.75C282.893 344.574 282.53 344.354 282.194 344.095Z" fill="#4882AD"/>
<path d="M295.378 333.533C293.967 333.864 292.538 334.111 291.098 334.272C288.452 334.666 284.793 335.226 280.776 335.941C276.759 336.656 273.135 337.407 270.512 337.956C269.109 338.31 267.683 338.573 266.245 338.742C266.592 338.565 266.961 338.433 267.342 338.349C268.057 338.135 269.106 337.848 270.405 337.527C273.016 336.871 276.627 336.06 280.668 335.333C284.709 334.606 288.369 334.141 291.039 333.831C292.374 333.688 293.423 333.593 294.209 333.545C294.596 333.484 294.99 333.48 295.378 333.533Z" fill="#4882AD"/>
<path d="M289.727 326.536C289.727 326.632 288.083 326.775 285.46 327.168C278.596 328.18 271.93 330.247 265.697 333.295C263.313 334.487 261.87 335.286 261.823 335.19C262.103 334.921 262.42 334.692 262.764 334.511C263.384 334.094 264.314 333.545 265.494 332.902C268.582 331.256 271.819 329.907 275.161 328.873C278.5 327.842 281.928 327.123 285.401 326.727C286.736 326.584 287.785 326.513 288.559 326.501C288.948 326.451 289.342 326.463 289.727 326.536Z" fill="#4882AD"/>
<path d="M337.622 386.721L330.47 403.409C333.105 405.793 343.117 407.318 346.646 407.14C350.174 406.961 355.276 406.996 358.792 406.603C363.272 406.242 367.775 406.274 372.25 406.698C376.727 407.123 381.237 407.039 385.696 406.448C390.165 405.834 394.331 403.843 397.616 400.75C399.203 399.348 400.404 397.561 401.102 395.561C401.8 393.561 401.973 391.415 401.603 389.329C401.233 387.243 400.334 385.287 398.99 383.649C397.647 382.011 395.905 380.745 393.932 379.974C390.337 378.445 386.399 377.906 382.525 378.412C378.671 378.92 374.873 379.782 371.177 380.987C367.208 382.179 363.143 383.371 359.019 383.013C358.184 382.942 357.35 383.013 356.527 382.823C351.14 381.821 345.525 381.774 340.674 384.825C339.72 385.433 338.635 385.97 337.622 386.721Z" fill="#E0E0E0"/>
<path d="M338.659 388.592C338.85 388.373 339.062 388.174 339.291 387.996C339.933 387.466 340.619 386.991 341.341 386.577C344.03 385.03 347.134 384.36 350.222 384.658C352.153 384.849 354.227 385.242 356.468 385.576C358.827 385.997 361.231 386.113 363.62 385.922C366.244 385.569 368.829 384.975 371.344 384.146C374.082 383.239 376.913 382.64 379.783 382.358C382.673 382.078 385.59 382.328 388.389 383.097C389.719 383.481 391.005 384 392.228 384.646C393.416 385.249 394.489 386.056 395.398 387.03C397.073 388.851 398.251 391.072 398.819 393.479C399.098 394.575 399.135 395.718 398.927 396.829C398.701 397.849 398.298 398.821 397.735 399.701C396.792 401.196 395.525 402.459 394.028 403.397C392.915 404.106 391.737 404.708 390.511 405.196C389.51 405.614 388.723 405.888 388.187 406.079C387.919 406.19 387.639 406.27 387.352 406.317C387.604 406.175 387.867 406.056 388.139 405.959C388.664 405.733 389.438 405.423 390.416 404.982C391.605 404.451 392.749 403.825 393.837 403.11C395.266 402.176 396.467 400.934 397.353 399.475C397.9 398.608 398.263 397.638 398.421 396.626C398.579 395.613 398.528 394.579 398.271 393.586C397.696 391.284 396.548 389.164 394.934 387.424C393.061 385.58 390.726 384.275 388.175 383.645C385.458 382.911 382.633 382.669 379.831 382.93C374.014 383.359 368.853 386.017 363.679 386.506C361.248 386.684 358.804 386.548 356.408 386.101C354.167 385.731 352.105 385.314 350.198 385.099C347.186 384.788 344.149 385.377 341.472 386.792C340.503 387.342 339.564 387.943 338.659 388.592Z" fill="#4882AD"/>
<path d="M387.4 406.389C387.4 406.389 387.138 406.162 386.757 405.662C386.517 405.367 386.297 405.057 386.101 404.732C385.823 404.311 385.572 403.873 385.35 403.421C384.743 402.257 384.244 401.04 383.86 399.785C383.394 398.229 383.075 396.633 382.907 395.017C382.764 393.411 382.764 391.795 382.907 390.189C383.032 388.883 383.275 387.59 383.634 386.327C383.762 385.837 383.921 385.355 384.11 384.885C384.234 384.526 384.381 384.175 384.551 383.836C384.838 383.276 385.004 382.978 385.04 383.002C385.076 383.025 384.563 384.289 384.063 386.435C383.764 387.684 383.568 388.956 383.479 390.237C383.385 391.806 383.409 393.38 383.55 394.945C383.73 396.508 384.029 398.054 384.444 399.57C384.794 400.796 385.241 401.991 385.779 403.146C386.649 405.28 387.472 406.329 387.4 406.389Z" fill="#263238"/>
<path d="M342.021 384.384C342.176 384.468 342.021 385.087 341.675 385.803C341.329 386.518 341.055 387.09 340.888 386.995C340.722 386.899 340.793 386.279 341.103 385.529C341.413 384.778 341.878 384.301 342.021 384.384Z" fill="#4882AD"/>
<path d="M347.111 382.405C347.266 382.477 347.111 383.085 346.908 383.8C346.705 384.515 346.407 385.087 346.24 384.992C346.074 384.897 346.074 384.301 346.312 383.55C346.55 382.799 346.956 382.334 347.111 382.405Z" fill="#4882AD"/>
<path d="M353.654 382.274C353.809 382.334 353.726 383.037 353.464 383.848C353.201 384.658 352.844 385.278 352.689 385.219C352.534 385.159 352.605 384.468 352.868 383.657C353.13 382.846 353.488 382.227 353.654 382.274Z" fill="#4882AD"/>
<path d="M359.793 383.049C359.96 383.049 359.901 383.8 359.662 384.623C359.424 385.445 359.09 386.077 358.935 386.029C358.78 385.982 358.828 385.278 359.066 384.444C359.305 383.609 359.627 383.002 359.793 383.049Z" fill="#4882AD"/>
<path d="M364.967 386.291C364.8 386.291 364.657 385.457 364.669 384.432C364.681 383.407 364.812 382.584 364.991 382.584C365.169 382.584 365.289 383.419 365.289 384.432C365.289 385.445 365.134 386.291 364.967 386.291Z" fill="#4882AD"/>
<path d="M370.712 384.825C370.534 384.825 370.295 384.11 370.164 383.18C370.033 382.251 370.069 381.476 370.236 381.452C370.402 381.428 370.653 382.167 370.784 383.097C370.915 384.027 370.903 384.801 370.712 384.825Z" fill="#4882AD"/>
<path d="M376.028 379.616C376.195 379.616 376.47 380.284 376.636 381.178C376.803 382.072 376.803 382.823 376.636 382.847C376.47 382.87 376.195 382.179 376.028 381.285C375.862 380.391 375.862 379.64 376.028 379.616Z" fill="#4882AD"/>
<path d="M382.894 378.353C383.061 378.353 382.99 379.366 382.751 380.534C382.513 381.702 382.155 382.632 381.988 382.596C381.821 382.56 381.893 381.583 382.143 380.415C382.394 379.247 382.727 378.317 382.894 378.353Z" fill="#4882AD"/>
<path d="M388.783 378.519C388.938 378.591 388.521 379.711 387.841 380.903C387.162 382.095 386.494 383.121 386.351 383.037C386.481 382.182 386.803 381.367 387.293 380.653C387.96 379.401 388.592 378.448 388.783 378.519Z" fill="#4882AD"/>
<path d="M394.778 380.093C394.922 380.188 394.373 381.285 393.586 382.549C392.8 383.812 391.977 384.766 391.834 384.67C391.691 384.575 392.24 383.478 393.026 382.215C393.813 380.951 394.635 379.998 394.778 380.093Z" fill="#4882AD"/>
<path d="M398.641 383.717C398.772 383.812 398.248 384.802 397.449 385.934C396.65 387.066 395.911 387.901 395.78 387.805C395.649 387.71 396.162 386.709 396.972 385.576C397.783 384.444 398.498 383.61 398.641 383.717Z" fill="#4882AD"/>
<path d="M401.335 388.318C401.478 388.413 400.942 389.379 400.036 390.38C399.13 391.381 398.224 392.001 398.116 391.882C398.009 391.763 398.701 390.94 399.583 389.963C400.465 388.985 401.192 388.211 401.335 388.318Z" fill="#4882AD"/>
<path d="M400.941 395.339C401.073 395.434 400.775 396.018 400.071 396.328C399.368 396.638 398.724 396.471 398.748 396.328C398.772 396.185 399.261 396.03 399.821 395.78C400.381 395.529 400.81 395.219 400.941 395.339Z" fill="#4882AD"/>
<path d="M397.127 401.346C397.127 401.501 397.02 401.704 396.758 401.668C396.495 401.632 396.412 401.37 396.519 401.239C396.557 401.182 396.609 401.135 396.669 401.102C396.729 401.068 396.796 401.05 396.865 401.048C396.93 401.072 396.988 401.112 397.034 401.164C397.079 401.216 397.112 401.279 397.127 401.346Z" fill="#4882AD"/>
<path d="M355.562 403.718C356.409 401.934 357.06 400.064 357.505 398.14C357.759 396.163 357.799 394.165 357.624 392.18C358.314 394.109 358.486 396.184 358.124 398.2C357.762 400.216 356.879 402.102 355.562 403.671V403.718Z" fill="#263238"/>
<path d="M360.473 403.158C361.258 401.513 361.857 399.786 362.261 398.009C362.471 396.195 362.471 394.363 362.261 392.549C362.979 394.308 363.194 396.232 362.88 398.106C362.566 399.98 361.737 401.729 360.485 403.158H360.473Z" fill="#263238"/>
<path d="M366.659 403.194C368.804 399.778 369.563 395.672 368.781 391.715C369.121 392.221 369.333 392.802 369.401 393.408C369.679 394.849 369.679 396.33 369.401 397.77C369.144 399.216 368.605 400.597 367.815 401.835C367.231 402.777 366.719 403.242 366.659 403.194Z" fill="#263238"/>
<path d="M373.645 402.777C374.36 400.92 374.899 399.001 375.254 397.043C375.394 395.057 375.354 393.062 375.135 391.083C375.872 393.006 376.122 395.081 375.862 397.123C375.602 399.166 374.84 401.112 373.645 402.789V402.777Z" fill="#263238"/>
<path d="M354.31 397.544C353.992 397.683 353.642 397.733 353.297 397.687C352.352 397.626 351.437 397.327 350.639 396.817C349.494 396.043 348.494 395.075 347.683 393.956C347.133 393.325 346.698 392.603 346.396 391.822C346.246 391.373 346.209 390.894 346.288 390.428C346.379 389.926 346.64 389.472 347.027 389.14C347.404 388.839 347.848 388.635 348.322 388.545C348.796 388.456 349.285 388.484 349.745 388.628C350.556 388.895 351.289 389.357 351.879 389.975C352.861 390.963 353.621 392.15 354.108 393.455C354.438 394.323 354.635 395.235 354.692 396.161C354.745 396.499 354.725 396.845 354.632 397.174C354.449 395.953 354.138 394.754 353.702 393.598C353.182 392.384 352.424 391.286 351.473 390.368C350.95 389.82 350.299 389.41 349.578 389.176C349.214 389.068 348.829 389.048 348.456 389.119C348.083 389.189 347.732 389.348 347.433 389.581C347.161 389.834 346.973 390.163 346.892 390.524C346.811 390.886 346.842 391.264 346.98 391.608C347.261 392.327 347.664 392.992 348.172 393.575C348.923 394.665 349.85 395.623 350.913 396.412C351.914 397.106 353.093 397.499 354.31 397.544Z" fill="#263238"/>
<path d="M354.024 397.365C354.002 397.678 353.926 397.984 353.798 398.271C353.531 399.096 353.187 399.894 352.773 400.655C352.17 401.815 351.253 402.781 350.127 403.444C349.435 403.836 348.657 404.049 347.862 404.064C347.401 404.096 346.939 404.008 346.522 403.81C346.104 403.611 345.745 403.309 345.478 402.932C345.269 402.523 345.183 402.062 345.229 401.606C345.276 401.149 345.453 400.715 345.74 400.357C346.202 399.716 346.817 399.2 347.528 398.855C348.697 398.336 349.933 397.983 351.199 397.806C352.325 397.526 353.474 397.355 354.632 397.293C353.549 397.703 352.432 398.018 351.295 398.235C350.085 398.47 348.908 398.85 347.79 399.368C347.173 399.68 346.641 400.138 346.241 400.703C346.028 400.967 345.894 401.286 345.854 401.624C345.814 401.961 345.869 402.303 346.014 402.61C346.222 402.885 346.493 403.105 346.804 403.253C347.116 403.4 347.458 403.47 347.802 403.456C348.498 403.453 349.182 403.277 349.793 402.944C350.848 402.342 351.727 401.475 352.344 400.428C353.428 398.593 353.869 397.305 354.024 397.365Z" fill="#263238"/>
<path d="M353.535 402.443C353.392 402.324 354.084 401.406 354.286 400.059C354.489 398.712 354.155 397.675 354.286 397.58C354.589 397.93 354.799 398.349 354.899 398.801C354.999 399.252 354.985 399.721 354.859 400.166C354.656 401.704 353.631 402.574 353.535 402.443Z" fill="#263238"/>
<path d="M356.194 394.111C356.349 394.111 356.194 395.064 355.681 396.042C355.168 397.019 354.489 397.639 354.358 397.544C354.227 397.448 354.644 396.674 355.133 395.756C355.621 394.838 356.027 394.051 356.194 394.111Z" fill="#263238"/>
<path d="M375.277 385.242C374.46 385.785 373.569 386.206 372.631 386.494C368.175 388.156 363.421 388.871 358.673 388.592C357.693 388.588 356.718 388.447 355.776 388.175C359.082 388.215 362.386 388.044 365.67 387.662C368.922 387.066 372.131 386.257 375.277 385.242Z" fill="#5BA3D9"/>
<path d="M372.321 404.565C370.169 405.028 367.978 405.283 365.777 405.328C363.593 405.579 361.39 405.627 359.197 405.471C361.349 405.008 363.541 404.752 365.741 404.708C367.925 404.456 370.128 404.409 372.321 404.565Z" fill="#5BA3D9"/>
<path d="M388.139 405.03C389.633 404.819 391.063 404.291 392.335 403.48C393.677 402.563 394.755 401.31 395.458 399.844C396.267 398.035 396.492 396.018 396.102 394.075C395.723 392.119 394.806 390.307 393.455 388.842C392.34 387.657 391.004 386.702 389.522 386.029C388.115 385.457 386.653 385.03 385.159 384.754C385.573 384.678 385.997 384.678 386.411 384.754C387.537 384.885 388.64 385.17 389.689 385.6C391.265 386.239 392.691 387.201 393.873 388.425C395.327 389.951 396.312 391.862 396.71 393.932C397.131 396.004 396.872 398.158 395.971 400.071C395.203 401.609 394.028 402.908 392.573 403.826C391.602 404.439 390.514 404.844 389.379 405.018C388.97 405.099 388.55 405.103 388.139 405.03Z" fill="#5BA3D9"/>
<path d="M312.733 375.73L343.725 389.498C344.027 393.438 343.373 397.392 341.818 401.024C339.553 405.673 332.675 404.744 332.675 404.744L305.402 398.402L311.482 394.826L312.733 375.73Z" fill="#FFBE9D"/>
<path d="M340.435 403.468C339.209 402.61 338.089 401.61 337.098 400.488C336.108 399.353 335.551 397.905 335.524 396.399C335.659 395.043 336.117 393.739 336.859 392.597C337.493 391.216 338.584 390.097 339.947 389.426C341.663 388.783 343.523 389.522 345.203 390.344L345.525 397.258L340.435 403.468Z" fill="#E0E0E0"/>
<path d="M343.773 389.498C343.702 389.653 336.705 386.697 328.134 382.894C319.564 379.092 312.638 375.885 312.733 375.742C312.829 375.599 319.814 378.532 328.384 382.334C336.955 386.137 343.845 389.331 343.773 389.498Z" fill="#EB996E"/>
<path d="M379.056 264.517C379.355 264.533 379.653 264.489 379.935 264.39C380.217 264.29 380.476 264.135 380.697 263.934C380.919 263.734 381.099 263.491 381.226 263.221C381.354 262.951 381.426 262.658 381.44 262.359C381.786 252.561 375.325 230.366 372.226 221.152C370.331 215.525 363.882 211.413 359.448 208.385C354.036 204.726 334.904 200.244 328.599 198.504H326.477L297.166 196.322L281.062 204.035C281.062 204.035 258.736 212.498 252.263 224.299C245.79 236.099 240.867 270.584 240.867 270.584C240.867 270.584 237.899 280.442 240.867 284.888C242.715 287.665 249.593 290.073 255.779 291.253C252.43 302.41 255.076 310.695 254.957 312.113C254.707 315.045 252.454 321.876 257.734 321.458C263.015 321.041 304.306 310.134 316.571 309.646C326.956 309.364 337.225 311.884 346.3 316.941C352.486 320.409 352.439 320.66 354.644 314.557C356.849 308.454 349.804 301.576 349.804 301.576C349.804 301.576 356.122 278.749 359.066 263.825L379.056 264.517Z" fill="#4882AD"/>
<path d="M280.728 251.262C280.728 251.262 280.359 250.94 279.798 250.272C279.238 249.605 278.356 248.568 277.414 247.447C274.851 244.334 272.063 241.413 269.07 238.71C267.404 237.244 265.618 235.92 263.73 234.752C262.189 233.812 260.565 233.014 258.879 232.368C255.982 231.272 254.111 230.998 254.111 230.878C254.564 230.869 255.017 230.917 255.458 231.021C255.985 231.097 256.507 231.208 257.019 231.355C257.707 231.514 258.384 231.717 259.046 231.963C260.788 232.569 262.465 233.347 264.052 234.287C265.982 235.446 267.805 236.774 269.5 238.257C272.548 240.976 275.341 243.968 277.844 247.197C278.809 248.389 279.572 249.438 280.073 250.153C280.325 250.501 280.544 250.873 280.728 251.262Z" fill="#263238"/>
<path d="M275.352 284.221C274.877 284.309 274.393 284.345 273.91 284.328C272.98 284.328 271.633 284.387 269.964 284.328C265.628 284.301 261.299 283.979 257.007 283.362C252.714 282.76 248.503 281.672 244.456 280.12C243.235 279.651 242.041 279.113 240.88 278.511C240.434 278.321 240.014 278.077 239.628 277.784C239.628 277.688 241.511 278.594 244.634 279.715C248.703 281.137 252.898 282.167 257.162 282.79C261.431 283.386 265.728 283.764 270.036 283.923L273.969 284.078C274.434 284.075 274.898 284.123 275.352 284.221Z" fill="#263238"/>
<path d="M337.336 295.401C337.24 295.72 337.095 296.021 336.907 296.295C336.459 297.065 335.97 297.809 335.441 298.524C331.924 303.288 327.172 306.998 321.697 309.252C320.875 309.601 320.03 309.895 319.17 310.134C318.864 310.249 318.542 310.317 318.216 310.337C318.216 310.23 319.492 309.789 321.518 308.859C324.144 307.629 326.626 306.114 328.92 304.341C331.2 302.548 333.271 300.505 335.095 298.25C336.442 296.522 337.193 295.354 337.336 295.401Z" fill="#263238"/>
<path d="M337.813 304.556C337.261 305.179 336.603 305.699 335.87 306.094C334.191 307.179 332.391 308.063 330.506 308.728C328.62 309.392 326.664 309.84 324.677 310.063C323.857 310.205 323.018 310.205 322.198 310.063C324.937 309.601 327.641 308.952 330.291 308.12C332.878 307.107 335.391 305.916 337.813 304.556Z" fill="#263238"/>
<path d="M372.142 221.152C372.144 221.495 372.095 221.836 371.999 222.165C371.814 223.071 371.579 223.966 371.296 224.847C370.385 227.757 369.149 230.556 367.613 233.191C366.067 235.831 364.236 238.293 362.153 240.534C361.355 241.38 360.675 242.036 360.175 242.465C359.674 242.894 359.4 243.12 359.364 243.084C359.328 243.049 360.318 242 361.832 240.236C363.795 237.945 365.55 235.483 367.076 232.881C368.588 230.267 369.86 227.522 370.879 224.68C371.666 222.522 372.047 221.128 372.142 221.152Z" fill="#263238"/>
<path d="M379.652 259.272C378.702 259.457 377.734 259.533 376.767 259.498C374.979 259.498 372.512 259.498 369.794 259.498C367.077 259.498 364.609 259.212 362.833 259.022C361.865 258.98 360.905 258.828 359.972 258.569C360.931 258.475 361.898 258.475 362.857 258.569L369.818 258.867L376.767 259.105C377.732 259.062 378.699 259.118 379.652 259.272Z" fill="#263238"/>
<path d="M356.408 225.097C356.59 225.609 356.725 226.135 356.813 226.671C357.052 227.863 357.362 229.257 357.719 230.998C358.458 234.657 359.519 239.723 360.103 245.409C360.657 250.27 360.633 255.179 360.032 260.035C359.758 261.882 359.484 263.372 359.221 264.385C359.121 264.922 358.973 265.448 358.78 265.959C358.792 265.413 358.86 264.87 358.983 264.338C359.174 263.325 359.388 261.823 359.591 259.975C360.066 255.149 360.03 250.287 359.484 245.468C358.852 239.83 357.862 234.74 357.243 231.081C356.921 229.245 356.67 227.743 356.527 226.718C356.426 226.184 356.386 225.64 356.408 225.097Z" fill="#263238"/>
<path d="M280.728 255.386C280.751 255.849 280.723 256.312 280.644 256.769C280.549 257.651 280.394 258.914 280.191 260.476C279.774 263.611 279.142 267.938 278.272 272.682C277.567 276.746 276.628 280.766 275.459 284.721C275.098 285.917 274.668 287.091 274.172 288.238C274 288.659 273.78 289.058 273.516 289.43C273.421 289.43 274.255 287.618 275.042 284.566C275.829 281.515 276.794 277.271 277.664 272.539C278.535 267.807 279.226 263.504 279.762 260.392C280.009 258.938 280.223 257.71 280.406 256.709C280.461 256.257 280.569 255.813 280.728 255.386Z" fill="#263238"/>
<path d="M276.711 236.397C277.22 237.131 277.621 237.934 277.903 238.781C279.519 242.7 280.563 246.831 281.002 251.047C281.13 251.917 281.13 252.8 281.002 253.67C280.811 253.67 280.442 249.712 279.226 244.956C278.01 240.2 276.544 236.469 276.711 236.397Z" fill="#263238"/>
<path d="M310.445 278.666C310.538 278.431 310.649 278.204 310.779 277.986C311.041 277.51 311.398 276.878 311.839 276.067L315.845 268.975C319.337 262.896 324.189 254.456 329.767 244.753L330.161 245.171C326.585 246.887 322.842 248.58 318.86 250.153C314.092 252.06 309.324 253.67 304.926 254.921L303.996 255.195L304.616 254.444L321.304 234.18L326.191 228.339L327.514 226.79C327.662 226.605 327.826 226.434 328.003 226.277C327.885 226.483 327.749 226.679 327.598 226.861L326.346 228.459L321.578 234.419L305.033 254.861L304.711 254.385C309.098 253.074 313.806 251.464 318.586 249.617C322.544 248.043 326.334 246.363 329.851 244.67L330.745 244.241L330.244 245.087L316.131 269.201L311.971 276.21L310.779 278.082C310.685 278.286 310.573 278.481 310.445 278.666Z" fill="white"/>
<g opacity="0.3">
<path d="M331.829 311.291C333.236 311.66 335.93 307.405 337.491 304.794C332.723 307.441 328.122 310.611 322.782 309.455C325.75 308.661 328.477 307.149 330.723 305.051C332.968 302.953 334.662 300.335 335.656 297.428C331.927 303.118 326.419 307.414 319.993 309.646C319.993 309.646 329.6 310.707 331.829 311.291Z" fill="black"/>
</g>
<path d="M276.711 184.76C276.711 184.76 277.521 185.094 279.095 185.428C281.247 185.942 283.509 185.72 285.52 184.796C286.873 184.131 288.001 183.082 288.762 181.78C289.205 181.055 289.481 180.24 289.572 179.395C289.663 178.55 289.565 177.696 289.287 176.893C289.005 176.001 288.491 175.199 287.798 174.571C287.104 173.943 286.257 173.51 285.341 173.317C284.355 173.205 283.359 173.414 282.5 173.912C281.641 174.41 280.966 175.171 280.573 176.082C280.393 176.541 280.309 177.032 280.328 177.524C280.346 178.016 280.466 178.499 280.68 178.943C281.13 179.815 281.838 180.527 282.707 180.981C283.534 181.452 284.472 181.695 285.424 181.685C286.344 181.663 287.249 181.452 288.083 181.065C289.649 180.311 291.013 179.195 292.064 177.811C293.017 176.624 293.788 175.302 294.353 173.889C295.168 171.826 295.573 169.623 295.545 167.405C295.545 165.843 295.342 165.021 295.402 164.961C295.487 165.158 295.543 165.367 295.568 165.581C295.681 166.183 295.752 166.793 295.783 167.405C295.893 169.669 295.523 171.932 294.698 174.044C294.144 175.514 293.373 176.892 292.41 178.133C291.324 179.598 289.901 180.779 288.261 181.577C287.358 182.007 286.376 182.246 285.377 182.281C284.318 182.295 283.274 182.032 282.349 181.518C281.369 181.002 280.573 180.194 280.072 179.205C279.816 178.688 279.672 178.122 279.649 177.545C279.626 176.967 279.726 176.392 279.941 175.856C280.381 174.817 281.146 173.949 282.123 173.383C283.099 172.818 284.233 172.585 285.353 172.721C286.37 172.923 287.313 173.395 288.085 174.087C288.857 174.779 289.428 175.666 289.74 176.654C290.037 177.535 290.137 178.469 290.032 179.392C289.927 180.315 289.619 181.204 289.132 181.995C288.3 183.362 287.086 184.456 285.639 185.142C283.534 186.076 281.168 186.244 278.952 185.618C278.359 185.468 277.78 185.265 277.224 185.01C277.044 184.945 276.872 184.861 276.711 184.76Z" fill="#263238"/>
<path d="M370.164 158.453C370.414 156.03 370.142 153.582 369.367 151.273C368.592 148.964 367.331 146.847 365.67 145.066C363.977 143.311 361.866 142.014 359.536 141.297C357.205 140.58 354.73 140.466 352.344 140.966C348.908 141.605 345.746 143.267 343.272 145.734C342.511 146.498 341.889 147.389 341.437 148.368C341.353 148.511 341.282 148.666 341.198 148.821C341.115 148.976 341.019 149.215 340.936 149.417V149.513C339.461 152.888 339.093 156.644 339.887 160.241C340.527 162.955 341.847 165.462 343.724 167.525C345.601 169.587 347.973 171.138 350.615 172.029C353.288 172.834 356.13 172.89 358.833 172.193C361.535 171.495 363.995 170.07 365.944 168.072C368.373 165.419 369.857 162.037 370.164 158.453Z" fill="#263238"/>
<path d="M368.03 166.415C367.923 166.415 367.708 165.056 366.838 163.018C365.76 160.357 364.084 157.98 361.941 156.07C359.798 154.161 357.244 152.769 354.477 152.004C352.355 151.408 350.901 151.36 350.973 151.241C351.296 151.187 351.627 151.187 351.95 151.241C352.838 151.288 353.72 151.416 354.584 151.622C357.472 152.288 360.145 153.669 362.357 155.64C364.57 157.611 366.25 160.107 367.244 162.899C367.545 163.735 367.772 164.597 367.923 165.473C368.01 165.779 368.046 166.097 368.03 166.415Z" fill="#4882AD"/>
<path d="M363.369 156.998C363.152 157.982 362.786 158.926 362.285 159.799C361.173 161.967 359.743 163.956 358.041 165.7C356.328 167.428 354.362 168.887 352.212 170.027C351.351 170.561 350.415 170.962 349.435 171.219C349.316 171.016 353.679 169.324 357.6 165.259C361.522 161.194 363.179 156.879 363.369 156.998Z" fill="#4882AD"/>
<path d="M350.508 151.873C350.329 151.765 351.76 149.489 352.892 146.437C353.528 144.572 353.948 142.64 354.144 140.68C354.352 141.243 354.425 141.847 354.358 142.444C354.296 143.885 353.998 145.307 353.476 146.652C352.829 148.565 351.821 150.338 350.508 151.873Z" fill="#5BA3D9"/>
<path d="M350.686 147.724C350.978 140.922 348.68 134.262 344.256 129.086C339.832 123.91 333.611 120.603 326.846 119.832C323.354 119.442 319.819 119.761 316.453 120.769C313.086 121.776 309.958 123.453 307.254 125.697C304.55 127.941 302.326 130.708 300.716 133.831C299.105 136.954 298.141 140.37 297.881 143.874L295.497 202.711C295.454 203.85 295.794 204.971 296.462 205.894C300.173 210.987 305.74 214.413 311.958 215.43C317.347 215.956 322.761 214.727 327.395 211.926C328.149 211.479 328.773 210.842 329.204 210.078C329.635 209.315 329.858 208.452 329.85 207.575V194.463C329.85 194.441 329.859 194.419 329.875 194.404C329.89 194.388 329.912 194.379 329.934 194.379C331.164 194.45 332.398 194.394 333.617 194.212C337.086 193.295 345.895 189.719 348.624 176.642C349.423 172.208 350.198 159.931 350.686 147.724Z" fill="#FFBE9D"/>
<path d="M331.722 167.297C332.966 166.985 334.242 166.825 335.524 166.82C336.12 166.82 336.716 166.701 336.812 166.308C336.882 165.709 336.77 165.102 336.49 164.567C336.001 163.125 335.477 161.611 334.94 160.038C332.795 153.589 331.269 148.309 331.531 148.225C331.794 148.142 333.748 153.303 335.894 159.74C336.407 161.337 336.907 162.851 337.372 164.293C337.712 165.011 337.784 165.827 337.575 166.594C337.478 166.797 337.336 166.975 337.161 167.115C336.986 167.256 336.781 167.354 336.562 167.404C336.229 167.476 335.888 167.504 335.548 167.488C334.27 167.582 332.985 167.518 331.722 167.297Z" fill="#263238"/>
<path d="M345.025 156.498C344.997 157.054 344.754 157.578 344.346 157.958C343.939 158.339 343.4 158.546 342.843 158.536C342.569 158.545 342.296 158.5 342.04 158.403C341.784 158.306 341.55 158.159 341.351 157.97C341.153 157.782 340.994 157.555 340.883 157.305C340.773 157.054 340.714 156.783 340.709 156.51C340.731 155.951 340.973 155.424 341.381 155.042C341.789 154.66 342.332 154.455 342.891 154.471C343.165 154.462 343.438 154.507 343.694 154.604C343.95 154.701 344.184 154.848 344.383 155.037C344.581 155.226 344.74 155.452 344.851 155.703C344.961 155.953 345.02 156.224 345.025 156.498Z" fill="#263238"/>
<path d="M347.17 150.025C346.956 150.252 345.227 150.144 343.034 150.883C340.841 151.622 339.387 152.779 339.1 152.719C338.814 152.659 339.1 152.338 339.78 151.813C340.705 151.089 341.75 150.532 342.867 150.168C343.941 149.787 345.078 149.617 346.217 149.668C346.968 149.727 347.278 149.906 347.17 150.025Z" fill="#263238"/>
<path d="M322.663 155.032C322.635 155.588 322.392 156.112 321.985 156.492C321.578 156.873 321.038 157.08 320.481 157.07C320.208 157.078 319.936 157.032 319.68 156.934C319.425 156.836 319.191 156.689 318.993 156.501C318.795 156.312 318.635 156.087 318.525 155.836C318.414 155.586 318.354 155.317 318.348 155.043C318.372 154.486 318.615 153.96 319.022 153.579C319.43 153.198 319.971 152.992 320.529 153.005C320.803 152.996 321.076 153.041 321.332 153.138C321.588 153.235 321.822 153.382 322.021 153.571C322.22 153.759 322.379 153.986 322.489 154.237C322.599 154.487 322.658 154.758 322.663 155.032Z" fill="#263238"/>
<path d="M323.426 151.932C323.08 151.932 321.817 150.573 319.552 149.548C317.287 148.523 315.308 148.261 315.141 147.999C314.974 147.736 315.463 147.748 316.333 147.832C317.578 147.983 318.787 148.346 319.909 148.905C321.027 149.413 322.039 150.129 322.889 151.014C323.485 151.563 323.581 151.92 323.426 151.932Z" fill="#263238"/>
<path d="M329.743 194.296C329.743 194.296 320.743 194.558 309.825 187.358C309.825 187.358 312.829 199.195 329.743 198.504V194.296Z" fill="#EB996E"/>
<path d="M330.494 172.744C330.07 172.176 329.511 171.722 328.869 171.423C328.226 171.123 327.519 170.988 326.811 171.028C326.299 171.049 325.796 171.172 325.331 171.389C324.867 171.605 324.45 171.912 324.105 172.292C323.783 172.657 323.581 173.112 323.526 173.596C323.47 174.08 323.564 174.569 323.795 174.997C324.153 175.429 324.629 175.746 325.165 175.909C325.701 176.072 326.274 176.074 326.811 175.915C327.919 175.586 328.951 175.043 329.851 174.318C330.123 174.149 330.361 173.931 330.554 173.674C330.637 173.549 330.682 173.402 330.682 173.251C330.682 173.1 330.637 172.953 330.554 172.828" fill="#EB996E"/>
<path d="M324.82 168.525C325.19 168.525 325.082 171.004 327.204 172.876C329.326 174.747 331.972 174.604 331.972 174.95C331.972 175.105 331.352 175.403 330.22 175.379C328.745 175.321 327.335 174.757 326.227 173.782C325.189 172.864 324.541 171.585 324.415 170.206C324.331 169.109 324.641 168.501 324.82 168.525Z" fill="#263238"/>
<path d="M324.987 142.706C324.665 143.278 322.424 142.599 319.683 142.444C316.941 142.289 314.641 142.647 314.378 142.027C314.271 141.741 314.736 141.228 315.713 140.835C317.01 140.297 318.415 140.072 319.814 140.179C321.217 140.253 322.582 140.662 323.795 141.371C324.725 141.848 325.142 142.432 324.987 142.706Z" fill="#263238"/>
<path d="M347.122 143.04C346.693 143.541 345.12 142.921 343.201 142.802C341.282 142.682 339.625 142.968 339.279 142.408C339.124 142.134 339.41 141.621 340.137 141.216C341.129 140.682 342.255 140.446 343.378 140.537C344.501 140.628 345.574 141.042 346.467 141.729C347.122 142.277 347.313 142.825 347.122 143.04Z" fill="#263238"/>
<path d="M328.801 116.816C327.609 114.778 325.225 113.884 322.746 113.538C312.423 112.179 301.051 118.592 295.449 127.365C289.847 136.138 289.775 149.119 294.174 158.536L298.048 159.144C306.082 158.512 319.194 135.852 330.232 123.265C331.602 121.715 329.898 118.628 328.801 116.816Z" fill="#263238"/>
<path d="M348.636 123.241C344.25 118.473 337.134 112.584 328.265 116.089C326.99 118.616 329.708 121.822 331.948 123.67C335.25 126.4 338.123 128.223 340.292 130.166C344.667 134.112 350.126 140.668 350.687 148.046C350.687 148.511 351.08 148.571 351.545 148.487C352.01 148.404 353.464 145.353 354.108 141.335C355.443 132.801 353.035 128.057 348.636 123.241Z" fill="#263238"/>
<path d="M298.679 145.686C298.204 143.714 297.273 141.881 295.962 140.334C295.105 139.317 294.091 138.444 292.958 137.747C290.84 136.537 288.45 135.884 286.011 135.848C283.572 135.813 281.163 136.396 279.011 137.545C276.892 138.732 275.051 140.359 273.611 142.316C272.172 144.273 271.169 146.516 270.667 148.893C269.846 152.404 270.211 156.088 271.704 159.37C272.952 161.867 274.862 163.973 277.224 165.459C279.587 166.945 282.312 167.754 285.102 167.798C287.894 167.767 290.633 167.026 293.058 165.643C295.484 164.26 297.517 162.282 298.965 159.895C300.944 156.533 300.384 150.597 298.679 145.686Z" fill="#263238"/>
<path d="M300.515 154.412C300.277 154.293 290.693 150.705 290.276 160.717C289.859 170.73 300.003 169.061 300.027 168.799C300.051 168.537 300.515 154.412 300.515 154.412Z" fill="#FFBE9D"/>
<path d="M297.13 164.878C297.13 164.878 296.951 164.997 296.653 165.116C296.232 165.283 295.763 165.283 295.342 165.116C294.305 164.675 293.482 162.958 293.506 161.158C293.514 160.297 293.718 159.45 294.102 158.679C294.21 158.37 294.391 158.091 294.629 157.867C294.868 157.643 295.158 157.48 295.473 157.392C295.675 157.348 295.886 157.377 296.069 157.473C296.252 157.568 296.395 157.725 296.474 157.916C296.606 158.202 296.534 158.393 296.582 158.417C296.629 158.441 296.808 158.262 296.737 157.845C296.699 157.591 296.567 157.361 296.367 157.201C296.101 156.98 295.758 156.873 295.414 156.903C295 156.969 294.61 157.14 294.281 157.398C293.951 157.657 293.693 157.995 293.53 158.381C293.071 159.231 292.826 160.18 292.815 161.147C292.815 163.161 293.745 165.092 295.199 165.581C295.465 165.67 295.748 165.698 296.027 165.663C296.305 165.628 296.572 165.53 296.808 165.378C297.106 165.116 297.166 164.901 297.13 164.878Z" fill="#EB996E"/>
<path d="M350.698 125.243C349.747 125.505 348.765 125.633 347.778 125.625C345.412 125.758 343.038 125.678 340.686 125.386C338.341 125.114 336.023 124.639 333.76 123.968C332.801 123.74 331.878 123.378 331.019 122.895C331.987 123.042 332.943 123.261 333.879 123.551C336.159 124.1 338.467 124.521 340.793 124.814C343.12 125.081 345.46 125.221 347.802 125.231C348.766 125.158 349.735 125.162 350.698 125.243Z" fill="#4882AD"/>
<path d="M354.024 132.431C353.341 132.741 352.604 132.915 351.855 132.944C350.047 133.142 348.219 133.046 346.443 132.658C344.67 132.267 342.972 131.595 341.413 130.667C340.737 130.331 340.136 129.86 339.648 129.284C341.833 130.489 344.16 131.418 346.574 132.05C349.033 132.474 351.534 132.602 354.024 132.431Z" fill="#4882AD"/>
<path d="M294.174 130.822C294.174 130.691 296.343 131.072 299.836 130.977C301.883 130.921 303.923 130.714 305.939 130.357C308.398 129.894 310.824 129.265 313.198 128.474C315.57 127.656 317.887 126.688 320.136 125.577C321.964 124.657 323.739 123.635 325.452 122.514C328.384 120.606 330.017 119.164 330.101 119.248C329.767 119.64 329.395 119.999 328.992 120.32C328.635 120.654 328.17 121.036 327.609 121.512C327.049 121.989 326.417 122.442 325.702 122.931C324.001 124.113 322.225 125.184 320.386 126.137C318.129 127.287 315.795 128.279 313.401 129.105C310.996 129.912 308.534 130.534 306.034 130.965C303.989 131.3 301.92 131.467 299.848 131.466C299.052 131.48 298.256 131.448 297.464 131.37C296.864 131.348 296.267 131.284 295.676 131.18C295.165 131.107 294.662 130.987 294.174 130.822Z" fill="#4882AD"/>
<path d="M329.433 122.776C329.216 123.267 328.949 123.735 328.635 124.171C328.361 124.612 328.015 125.148 327.574 125.732C327.133 126.316 326.668 127.02 326.048 127.711C324.677 129.393 323.174 130.963 321.554 132.407C319.556 134.16 317.406 135.731 315.129 137.104C312.826 138.449 310.404 139.578 307.894 140.477C305.846 141.195 303.74 141.737 301.6 142.098C300.694 142.289 299.86 142.349 299.133 142.432C298.508 142.519 297.879 142.567 297.249 142.575C296.714 142.619 296.176 142.619 295.64 142.575C295.64 142.444 297.929 142.396 301.517 141.681C303.619 141.26 305.687 140.683 307.703 139.953C312.648 138.151 317.215 135.447 321.173 131.978C322.795 130.577 324.313 129.059 325.714 127.437C328.122 124.624 329.326 122.693 329.433 122.776Z" fill="#4882AD"/>
<path d="M322.746 113.574C323.418 113.442 324.114 113.491 324.761 113.717C326.349 114.17 327.776 115.068 328.873 116.303C329.188 116.673 329.468 117.072 329.707 117.495C329.916 117.874 330.084 118.273 330.208 118.687C330.449 119.371 330.636 120.072 330.768 120.785C330.946 121.454 330.896 122.163 330.625 122.8C330.518 122.8 330.625 122.025 330.339 120.881C330.152 120.2 329.925 119.532 329.66 118.878C329.54 118.489 329.38 118.114 329.183 117.758C328.958 117.388 328.698 117.041 328.408 116.721C327.377 115.564 326.08 114.676 324.629 114.134C323.509 113.741 322.746 113.681 322.746 113.574Z" fill="#4882AD"/>
<path d="M296.32 153.541C296.224 153.541 296.522 152.504 296.737 150.859C297.005 148.713 296.88 146.536 296.367 144.434C295.823 142.347 294.785 140.421 293.34 138.82C292.148 137.628 291.313 137.044 291.385 136.937C291.456 136.83 291.635 137.02 292.052 137.271C292.628 137.607 293.164 138.006 293.649 138.463C295.26 140.047 296.406 142.042 296.963 144.232C297.516 146.403 297.585 148.67 297.166 150.871C297.051 151.806 296.764 152.711 296.32 153.541Z" fill="#5BA3D9"/>
<path d="M297.07 151.384C297.011 151.467 295.783 150.681 293.673 149.632C288.171 146.913 282.095 145.56 275.96 145.686C273.576 145.686 272.169 145.925 272.146 145.829C272.464 145.693 272.802 145.608 273.147 145.579C274.073 145.412 275.008 145.3 275.948 145.245C282.166 144.877 288.362 146.265 293.828 149.25C294.654 149.691 295.45 150.185 296.212 150.728C296.808 151.074 297.094 151.3 297.07 151.384Z" fill="#4882AD"/>
<path d="M287.951 147.355C287.848 148.368 287.595 149.36 287.2 150.299C286.371 152.605 285.245 154.792 283.851 156.808C282.451 158.821 280.792 160.64 278.916 162.219C278.178 162.919 277.338 163.502 276.425 163.948C278.992 161.704 281.31 159.19 283.338 156.45C285.195 153.591 286.741 150.542 287.951 147.355Z" fill="#4882AD"/>
<path d="M294.543 166.808C294.615 166.618 294.972 166.498 295.568 166.653C296.431 166.915 297.173 167.472 297.666 168.227C298.328 169.219 298.584 170.427 298.382 171.602C298.181 172.777 297.536 173.83 296.581 174.544C295.781 175.117 294.828 175.437 293.844 175.462C292.86 175.488 291.891 175.218 291.062 174.688C290.331 174.209 289.732 173.553 289.322 172.78C288.945 172.081 288.748 171.298 288.75 170.504C288.774 169.861 288.924 169.229 289.191 168.644C289.529 167.784 290.187 167.087 291.027 166.701C291.658 166.463 292.04 166.63 292.088 166.82C292.159 167.249 291.408 167.822 291.289 169.288C291.235 169.643 291.235 170.005 291.289 170.361C291.384 170.708 291.541 171.035 291.754 171.326C291.973 171.646 292.266 171.907 292.609 172.088C292.952 172.269 293.333 172.363 293.721 172.363C294.088 172.369 294.449 172.272 294.763 172.082C295.077 171.892 295.331 171.618 295.497 171.29C295.826 170.659 295.898 169.924 295.699 169.24C295.342 167.917 294.424 167.214 294.543 166.808Z" fill="#4882AD"/>
<path d="M304.688 150.967C306.729 150.822 308.75 150.466 310.719 149.906C315.418 148.341 319.56 145.442 322.639 141.562C325.657 137.642 327.92 133.196 329.314 128.45C329.886 126.626 330.28 125.136 330.506 124.111C330.607 123.566 330.759 123.031 330.959 122.514C330.936 123.068 330.861 123.619 330.733 124.159C330.554 125.208 330.22 126.721 329.708 128.569C328.412 133.428 326.159 137.979 323.08 141.955C319.935 145.914 315.662 148.824 310.826 150.299C309.364 150.726 307.855 150.97 306.332 151.026C305.935 151.045 305.538 151.045 305.14 151.026C304.842 151.002 304.688 150.991 304.688 150.967Z" fill="#263238"/>
<path d="M329.409 203.105C329.628 203.167 329.834 203.268 330.017 203.403C330.559 203.763 331.038 204.21 331.436 204.726C332.066 205.548 332.513 206.495 332.747 207.503C333.078 208.843 333.041 210.248 332.64 211.568C332.048 213.256 331.084 214.79 329.819 216.054C328.554 217.319 327.021 218.283 325.333 218.875C323.383 219.617 321.349 220.113 319.277 220.353C317.065 220.646 314.83 220.733 312.602 220.615C308.256 220.462 304.033 219.131 300.384 216.765C297.397 214.818 295.063 212.019 293.685 208.731C293.152 207.472 292.88 206.117 292.886 204.75C292.9 203.708 293.179 202.686 293.697 201.782C294.022 201.214 294.46 200.719 294.984 200.327C295.159 200.188 295.357 200.079 295.568 200.006C294.882 200.507 294.316 201.154 293.911 201.901C293.452 202.779 293.218 203.758 293.232 204.75C293.27 206.069 293.561 207.368 294.09 208.576C295.491 211.74 297.792 214.423 300.706 216.288C304.279 218.561 308.394 219.84 312.626 219.995C314.818 220.111 317.017 220.028 319.194 219.745C321.232 219.53 323.235 219.057 325.154 218.339C326.785 217.798 328.275 216.899 329.512 215.706C330.75 214.514 331.705 213.059 332.306 211.449C332.652 210.35 332.744 209.186 332.575 208.046C332.405 206.906 331.979 205.82 331.328 204.869C330.789 204.18 330.141 203.584 329.409 203.105Z" fill="#263238"/>
<path d="M303.185 218.553C303.001 217.564 303.211 216.541 303.769 215.704C304.532 214.226 305.688 213.475 305.784 213.606C305.879 213.737 305.009 214.643 304.318 215.99C303.626 217.337 303.364 218.577 303.185 218.553Z" fill="#263238"/>
<path d="M314.366 220.675C314.101 219.868 314.032 219.01 314.164 218.172C314.164 216.801 314.39 215.692 314.569 215.692C314.835 216.499 314.908 217.356 314.783 218.196C314.688 219.566 314.545 220.675 314.366 220.675Z" fill="#263238"/>
<path d="M325.595 219.018C324.816 217.276 324.429 215.383 324.462 213.475C324.943 214.304 325.24 215.227 325.333 216.181C325.619 217.098 325.709 218.064 325.595 219.018Z" fill="#263238"/>
<path d="M332.151 211.866C331.996 211.95 331.531 211.33 330.756 210.829C329.982 210.328 329.243 210.114 329.255 209.935C329.266 209.756 330.184 209.697 331.102 210.305C332.02 210.912 332.306 211.806 332.151 211.866Z" fill="#263238"/>
<path d="M297.261 207.408C297.261 207.575 296.629 207.801 295.998 208.326C295.366 208.85 294.973 209.411 294.806 209.351C294.639 209.291 294.806 208.457 295.604 207.837C296.403 207.217 297.249 207.253 297.261 207.408Z" fill="#263238"/>
<path d="M316.87 287.177C316.467 287.157 316.075 287.04 315.726 286.836C315.378 286.633 315.085 286.348 314.87 286.006C314.656 285.664 314.528 285.275 314.496 284.873C314.464 284.471 314.53 284.067 314.688 283.696C317.907 276.449 326.692 262.502 327.264 261.596C328.098 260.333 328.539 258.771 331.209 258.449C332.235 258.33 348.327 257.961 352.105 257.877C352.41 257.865 352.715 257.914 353.002 258.02C353.288 258.127 353.551 258.289 353.774 258.497C354.525 259.212 355.312 260.571 354.12 262.705C352.785 265.089 343.058 280.192 339.112 286.008C338.727 286.575 338.205 287.035 337.594 287.345C336.984 287.656 336.304 287.807 335.62 287.785L316.87 287.177Z" fill="#263238"/>
<path d="M341.699 263.074C341.545 262.893 341.34 262.762 341.11 262.698C340.881 262.635 340.637 262.641 340.412 262.717C339.979 262.859 339.589 263.109 339.279 263.444C339.098 263.593 338.974 263.801 338.93 264.032C338.887 264.263 338.926 264.502 339.041 264.707C339.176 264.855 339.346 264.967 339.536 265.031C339.725 265.096 339.928 265.111 340.126 265.077C340.634 265.047 341.113 264.83 341.473 264.469C341.645 264.286 341.759 264.055 341.799 263.806C341.839 263.558 341.805 263.303 341.699 263.074Z" fill="white"/>
<path d="M349.971 266.352C350.134 265.867 350.346 265.4 350.603 264.958C350.842 264.493 351.104 263.956 351.414 263.372C351.581 263.062 351.747 262.729 351.926 262.383C352.145 262.067 352.284 261.703 352.332 261.322C352.338 261.128 352.297 260.935 352.211 260.761C352.126 260.586 352 260.435 351.843 260.321C351.657 260.203 351.45 260.123 351.233 260.086C351.016 260.05 350.794 260.056 350.579 260.106L347.289 260.237L339.768 260.5L332.234 260.726H331.4C331.175 260.745 330.96 260.828 330.78 260.964C330.451 261.329 330.164 261.729 329.922 262.156C329.374 263.015 328.861 263.825 328.372 264.54L326.108 268.009C325.848 268.437 325.544 268.836 325.202 269.201C325.385 268.724 325.621 268.268 325.905 267.842L328.003 264.266L329.481 261.811L329.886 261.143C330.027 260.879 330.212 260.641 330.435 260.44C330.691 260.225 331.007 260.092 331.34 260.059H332.223L339.72 259.856L347.254 259.641L350.532 259.57C351.085 259.478 351.652 259.602 352.117 259.915C352.324 260.082 352.49 260.295 352.6 260.537C352.709 260.78 352.76 261.044 352.749 261.31C352.738 261.557 352.668 261.798 352.546 262.013L352.248 262.55L351.688 263.515C351.354 264.087 351.056 264.6 350.782 265.053C350.561 265.515 350.29 265.951 349.971 266.352Z" fill="#4882AD"/>
<path d="M376.911 264.54C376.911 264.54 375.278 275.888 373.609 283.183C372.119 289.68 369.747 311.636 363.715 314.402C357.684 317.167 350.162 315.439 347.385 310.087C344.608 304.735 341.628 290.49 341.628 290.49L328.992 285.174C328.992 285.174 326.084 274.577 327.741 273.385C329.398 272.193 345.704 273.981 345.704 273.981L350.079 272.992C350.079 272.992 343.118 271.99 341.628 271.597C341.289 271.548 340.964 271.432 340.672 271.254C340.38 271.076 340.127 270.84 339.928 270.561C339.73 270.283 339.59 269.967 339.518 269.633C339.445 269.298 339.441 268.953 339.506 268.617C339.851 267.222 340.138 265.828 343.904 265.828C347.671 265.828 353.583 265.268 354.632 265.637C355.967 266.09 357.469 266.829 357.767 270.202C358.065 273.576 356.48 279.738 356.48 279.738L356.826 280.263L359.055 263.837L376.911 264.54Z" fill="#FFBE9D"/>
<path d="M355.693 284.137C355.377 284.331 355.03 284.468 354.668 284.542C353.719 284.861 352.751 285.124 351.771 285.329C348.536 286.033 345.218 286.286 341.913 286.08C338.603 285.868 335.344 285.156 332.246 283.97C331.307 283.633 330.391 283.235 329.505 282.778C329.165 282.634 328.847 282.441 328.563 282.206C328.563 282.111 330.017 282.778 332.401 283.589C335.487 284.622 338.691 285.259 341.937 285.484C345.184 285.664 348.44 285.464 351.64 284.888C354.167 284.459 355.669 284.042 355.693 284.137Z" fill="#EB996E"/>
<path d="M353.297 279.583C352.973 279.742 352.628 279.85 352.272 279.905C351.604 280.072 350.627 280.287 349.411 280.489C346.221 281.024 342.976 281.144 339.756 280.847C336.523 280.538 333.377 279.624 330.482 278.153C329.61 277.706 328.777 277.187 327.991 276.603C327.442 276.186 327.156 275.924 327.18 275.888C327.204 275.853 328.467 276.723 330.673 277.76C333.567 279.081 336.66 279.915 339.827 280.227C343.003 280.517 346.201 280.458 349.363 280.048C351.783 279.762 353.285 279.488 353.297 279.583Z" fill="#EB996E"/>
<path d="M357.243 267.866C357.314 267.866 357.541 268.426 357.481 269.392C357.463 269.981 357.304 270.558 357.016 271.073C356.816 271.387 356.536 271.642 356.205 271.812C355.887 271.992 355.552 272.14 355.204 272.253C354.025 272.619 352.803 272.827 351.569 272.873C351.075 272.942 350.577 272.982 350.079 272.992C350.079 272.908 350.579 272.61 351.509 272.443C352.693 272.263 353.864 272.004 355.013 271.669C355.598 271.519 356.128 271.204 356.539 270.763C356.802 270.328 356.976 269.846 357.052 269.344C357.083 268.848 357.147 268.354 357.243 267.866Z" fill="#EB996E"/>
<path d="M351.235 286.962C351.389 287.284 351.47 287.636 351.47 287.993C351.47 288.35 351.389 288.702 351.235 289.024C350.988 289.766 350.548 290.428 349.96 290.943C349.237 291.57 348.353 291.983 347.409 292.135C346.481 292.296 345.53 292.255 344.619 292.016C343.899 291.811 343.204 291.527 342.545 291.17C341.922 290.898 341.33 290.559 340.781 290.156C341.462 290.23 342.123 290.436 342.724 290.764C344.139 291.472 345.734 291.738 347.301 291.527C348.137 291.394 348.925 291.05 349.59 290.526C350.109 290.081 350.517 289.522 350.782 288.893C351.022 288.273 351.175 287.624 351.235 286.962Z" fill="#EB996E"/>
<path d="M356.492 266.722C356.492 266.722 356.575 266.722 356.718 266.853C356.921 267.019 357.091 267.221 357.219 267.449C357.665 268.3 357.91 269.242 357.934 270.203C358.003 273.454 357.602 276.698 356.742 279.834V279.667C357.355 281.295 358.109 282.866 358.995 284.364C360.221 286.443 361.591 288.435 363.095 290.324C364.465 291.802 365.664 293.429 366.671 295.175C367.295 296.429 367.419 297.874 367.017 299.216C366.896 299.574 366.714 299.908 366.481 300.205C366.326 300.396 366.218 300.479 366.207 300.467C366.436 300.044 366.628 299.602 366.779 299.144C367.073 297.866 366.896 296.524 366.278 295.366C365.244 293.689 364.046 292.12 362.702 290.681C361.154 288.804 359.752 286.811 358.506 284.721C357.607 283.203 356.845 281.607 356.229 279.953V279.858V279.774C357.079 276.685 357.535 273.501 357.588 270.298C357.594 269.383 357.42 268.476 357.076 267.628C356.9 267.314 356.705 267.012 356.492 266.722Z" fill="#EB996E"/>
<path d="M244.944 287.927C244.944 287.927 243.096 313.269 254.885 317.513C271.132 323.378 289.656 307.19 289.728 306.928C289.799 306.666 309.443 290.848 309.443 290.848L303.328 274.005C303.328 274.005 300.873 274.005 296.903 276.842C295.461 277.867 272.694 289.87 272.694 289.87C272.694 289.87 262.753 289.787 244.944 287.927Z" fill="#FFBE9D"/>
<path d="M273.516 289.489C273.6 289.68 269.309 291.42 264.124 293.744C261.537 294.936 259.26 296.128 257.627 296.987C256.776 297.525 255.883 297.996 254.957 298.393C255.691 297.695 256.513 297.094 257.401 296.605C259.483 295.327 261.645 294.185 263.873 293.184C266.472 291.992 268.88 291.062 270.632 290.419C271.561 290.017 272.527 289.705 273.516 289.489Z" fill="#EB996E"/>
<path d="M325.106 264.827C325.106 264.827 322.031 260.476 320.815 260.488C319.599 260.5 312.268 261.68 312.268 261.68L301.91 272.968C301.91 272.968 301.195 276.627 303.436 277.951C303.436 277.951 302.685 283.708 305.45 285.365C305.45 285.365 307.512 290.777 309.443 290.884C310.26 290.957 311.082 290.957 311.899 290.884C311.899 290.884 311.482 294.138 314.426 294.341C317.346 294.297 320.257 294.005 323.127 293.47C323.552 293.399 323.958 293.245 324.322 293.015C324.686 292.786 325.001 292.487 325.249 292.135L327.776 288.559C328.175 288.006 328.389 287.341 328.389 286.658C328.389 285.976 328.175 285.311 327.776 284.757C328.44 283.97 328.957 283.069 329.302 282.099C329.469 280.973 329.469 279.828 329.302 278.702C329.302 278.702 333.677 274.994 333.784 274.029C333.891 273.063 333.677 272.134 331.746 272.241C331.746 272.241 331.34 269.249 328.897 269.321C326.453 269.392 314.879 269.321 314.879 269.321L317.084 267.175C317.084 267.175 322.841 269.368 323.449 267.914L325.106 264.827Z" fill="#FFBE9D"/>
<path d="M308.49 277.796C309.113 277.705 309.743 277.661 310.373 277.664C311.565 277.593 313.329 277.486 315.499 277.235C318.053 276.932 320.589 276.483 323.092 275.888C324.51 275.543 325.988 275.137 327.514 274.696C329.03 274.113 330.398 273.201 331.519 272.026L331.591 271.967H331.674C332.241 271.83 332.838 271.889 333.367 272.134C333.651 272.313 333.862 272.588 333.963 272.908C334.044 273.191 334.08 273.485 334.07 273.779C334.087 273.909 334.087 274.041 334.07 274.172C334.041 274.329 333.98 274.479 333.891 274.613C333.758 274.821 333.61 275.02 333.45 275.209C333.152 275.567 332.818 275.9 332.497 276.234C331.841 276.89 331.185 277.498 330.518 278.082C328.23 279.905 325.842 281.601 323.366 283.16C321.342 284.379 319.098 285.189 316.762 285.544C315.218 285.778 313.644 285.737 312.113 285.424C311.708 285.34 311.309 285.225 310.921 285.079C310.781 285.042 310.648 284.982 310.528 284.9C312.55 285.417 314.658 285.502 316.715 285.15C318.978 284.762 321.15 283.954 323.116 282.766C325.368 281.419 327.645 279.548 330.16 277.653C330.816 277.068 331.472 276.461 332.103 275.817C332.425 275.495 332.735 275.173 333.021 274.827C333.307 274.482 333.295 274.482 333.414 274.315C333.534 274.148 333.51 274.124 333.51 274.112C333.522 274.009 333.522 273.905 333.51 273.802C333.51 273.302 333.426 272.861 333.105 272.694C332.705 272.527 332.262 272.493 331.841 272.598L332.008 272.527C331.381 273.114 330.716 273.66 330.017 274.16C329.345 274.698 328.576 275.102 327.752 275.352C326.215 275.829 324.713 276.222 323.271 276.544C320.745 277.11 318.184 277.508 315.606 277.736C313.413 277.951 311.649 277.986 310.433 277.986C309.825 277.986 309.36 277.986 309.038 277.986C308.847 277.95 308.662 277.886 308.49 277.796Z" fill="#EB996E"/>
<path d="M329.29 278.677C329.475 279.263 329.56 279.876 329.54 280.489C329.54 280.775 329.54 281.097 329.54 281.455C329.54 281.634 329.54 281.812 329.54 282.003C329.523 282.22 329.463 282.431 329.362 282.623C329.189 283.033 328.99 283.431 328.766 283.815L328.408 284.411L328.217 284.709C328.182 284.775 328.142 284.839 328.098 284.9L328.015 284.971C327.955 284.971 328.015 285.055 327.729 284.971C327.675 284.937 327.634 284.885 327.615 284.824C327.595 284.763 327.597 284.697 327.621 284.637C327.617 284.618 327.617 284.598 327.621 284.578L327.681 284.494L328.158 284.781C327.378 286.198 326.348 287.462 325.118 288.511C323.046 290.296 320.455 291.366 317.728 291.563C316.933 291.622 316.134 291.598 315.344 291.491C315.045 291.472 314.751 291.404 314.474 291.289C314.474 291.17 315.737 291.384 317.74 291.134C320.336 290.81 322.781 289.732 324.772 288.035C325.946 287.014 326.941 285.806 327.717 284.459L328.205 284.745C328.954 282.811 329.322 280.751 329.29 278.677Z" fill="#EB996E"/>
<path d="M317.346 267.246C317.346 267.389 316.154 266.948 315.57 265.566C315.365 264.996 315.332 264.378 315.475 263.79C315.594 263.349 315.761 263.11 315.832 263.134C315.904 263.158 315.737 264.243 316.154 265.351C316.571 266.46 317.465 267.091 317.346 267.246Z" fill="#EB996E"/>
<path d="M312.161 290.955C311.879 291.105 311.563 291.179 311.243 291.17C310.374 291.234 309.503 291.069 308.716 290.693C307.522 290.128 306.583 289.138 306.082 287.916C305.796 287.203 305.65 286.442 305.653 285.675C305.653 285.52 305.618 285.368 305.55 285.229C305.481 285.091 305.382 284.97 305.259 284.876C304.621 284.456 304.097 283.884 303.733 283.213C303.369 282.541 303.177 281.79 303.173 281.026C303.122 280.083 303.158 279.137 303.281 278.201L303.412 278.463C302.78 278.06 302.264 277.5 301.913 276.838C301.562 276.176 301.388 275.434 301.409 274.685C301.373 274.122 301.538 273.564 301.874 273.111C301.793 273.628 301.745 274.15 301.731 274.673C301.759 275.345 301.952 276 302.293 276.58C302.634 277.16 303.112 277.647 303.686 277.998L303.829 278.082V278.249C303.751 279.157 303.751 280.07 303.829 280.978C303.889 281.952 304.247 282.884 304.854 283.648C305.11 283.931 305.398 284.183 305.712 284.399C305.893 284.543 306.04 284.724 306.145 284.93C306.25 285.135 306.31 285.361 306.32 285.591C306.305 286.298 306.422 287.002 306.666 287.665C307.097 288.779 307.914 289.701 308.966 290.264C309.962 290.743 311.057 290.98 312.161 290.955Z" fill="#EB996E"/>
<g opacity="0.3">
<path d="M280.501 256.888C279.107 269.535 277.14 279.19 274.172 287.88C278.338 284.352 281.09 279.437 281.92 274.041C282.707 268.713 281.455 262.24 280.501 256.888Z" fill="black"/>
</g>
<g opacity="0.3">
<path d="M361.701 249.938C361.234 245.451 360.11 241.057 358.363 236.898C360.235 245.838 360.449 255.046 358.995 264.064L359.424 263.098C361.371 259.002 362.159 254.451 361.701 249.938Z" fill="black"/>
</g>
</svg>
