<svg version="1.1" id="Layer_1" xmlns="http://www.w3.org/2000/svg" xmlns:xlink="http://www.w3.org/1999/xlink" x="0px" y="0px"
	 width="100%" viewBox="0 0 1024 768" enable-background="new 0 0 1024 768" xml:space="preserve">
<path fill="#2D506C" opacity="1.000000" stroke="none" 
	d="
M1.000000,582.000000 
	C1.000000,457.305298 1.000000,332.610596 1.360674,207.394974 
	C54.994999,182.916306 108.515617,159.487808 161.443863,134.789856 
	C190.300720,121.324371 192.999146,82.822083 167.352158,63.831940 
	C150.499710,51.353642 133.337036,39.295048 116.367020,26.974501 
	C104.530884,18.381252 92.785774,9.662622 81.000000,0.999999 
	C395.616058,1.000000 710.232117,1.000000 1024.924072,1.000000 
	C1024.924072,256.908203 1024.924072,512.816467 1024.924072,769.000000 
	C733.638672,769.000000 442.277283,769.000000 150.536316,768.648315 
	C150.779205,766.752747 151.461990,765.230042 152.014786,763.661621 
	C157.519394,748.043152 168.389496,738.494385 184.577560,735.170776 
	C193.865036,733.263977 203.262817,731.891235 212.543030,729.952942 
	C251.324661,721.852722 269.907196,678.265869 248.928711,644.672729 
	C245.227005,638.745178 241.150635,633.052551 237.407104,627.150024 
	C231.476242,617.798523 229.792358,607.770874 232.974213,597.035095 
	C234.109299,593.205261 235.164642,589.349365 236.156265,585.479675 
	C242.850204,559.357605 233.581665,531.494385 213.116394,516.130920 
	C196.550247,503.694550 178.156036,507.656921 169.904922,526.454041 
	C161.011185,546.715149 145.715805,560.571533 127.350677,571.312988 
	C100.178558,587.205566 70.962669,591.267273 40.109085,584.612061 
	C27.274672,581.843689 14.261356,579.448853 1.000000,582.000000 
M829.993652,690.604797 
	C827.972290,698.322144 825.652405,705.976318 824.001526,713.772156 
	C821.693542,724.670837 824.078918,727.632080 835.134216,728.800415 
	C840.699951,729.388611 842.257202,728.366943 843.201233,722.638855 
	C845.598755,708.091858 851.273193,694.765747 858.934998,682.387512 
	C873.690186,658.549377 896.410645,646.134094 923.121521,641.451660 
	C944.632629,637.680786 966.301758,639.299927 987.380737,645.788757 
	C1001.291992,650.071167 1001.527649,649.853516 1005.871216,636.078369 
	C1007.046936,632.349731 1006.020691,629.834595 1003.094421,627.937561 
	C1001.169556,626.689697 998.972656,625.781372 996.793274,625.018738 
	C978.320862,618.554382 959.314697,616.319275 939.752808,616.847290 
	C911.945496,617.597656 887.257385,626.612061 865.228027,643.240540 
	C849.123474,655.396729 838.244507,671.577515 829.993652,690.604797 
M960.720825,50.151997 
	C956.610352,58.142651 952.406189,66.086838 948.414124,74.136223 
	C943.832825,83.373894 946.190552,92.096519 954.124329,95.999359 
	C962.646423,100.191597 971.018005,97.090904 975.700073,87.881317 
	C983.767639,72.012627 991.804138,56.127838 999.774780,40.210316 
	C1004.098145,31.576435 1001.520203,22.850105 993.634460,18.858097 
	C985.362671,14.670673 977.043213,17.759081 972.484863,26.744370 
	C968.645996,34.311390 964.844482,41.897327 960.720825,50.151997 
M746.402771,154.145493 
	C763.373413,164.503296 780.386414,164.323929 797.317139,154.148666 
	C798.637695,153.355042 800.198486,151.312469 800.058350,150.023056 
	C799.457764,144.495911 792.388733,141.166794 787.664978,143.862518 
	C772.626343,152.444611 753.249084,147.429947 744.583252,132.444336 
	C736.779968,118.950256 738.491699,106.041389 747.697632,93.796654 
	C750.278503,90.363770 748.959229,86.853951 743.844116,82.693550 
	C740.712646,80.146599 738.902222,82.632935 737.182007,84.528946 
	C726.935913,95.822304 723.999390,109.278168 726.342957,123.958450 
	C728.372070,136.668839 736.136414,145.891235 746.402771,154.145493 
M842.398254,111.125931 
	C838.956421,107.995514 835.825806,104.406532 832.014587,101.820587 
	C820.555664,94.045631 807.808716,91.137329 794.035889,93.081696 
	C790.985535,93.512321 789.111145,95.093788 789.401917,98.418533 
	C789.691956,101.733887 791.821594,102.919144 794.883667,102.933884 
	C796.548462,102.941895 798.280640,102.685776 799.866272,103.051895 
	C807.093140,104.720528 814.776917,105.498428 821.375549,108.573029 
	C835.133240,114.983383 842.400330,127.111206 845.669617,141.507660 
	C847.129028,147.934402 847.381165,154.647491 848.001465,161.247513 
	C848.316772,164.602127 848.597839,167.723587 853.007996,167.852768 
	C857.336304,167.979553 858.764343,165.471268 858.978699,161.566528 
	C860.006165,142.851120 855.450256,125.966095 842.398254,111.125931 
M972.074097,174.443970 
	C971.372131,173.733505 970.674377,173.018753 969.967407,172.313293 
	C964.752625,167.109543 964.412292,167.081863 959.252136,172.229355 
	C950.415222,181.044449 941.683105,189.966034 932.760376,198.692963 
	C929.593872,201.789948 929.370728,204.276566 932.647583,207.477692 
	C941.933350,216.548920 951.114136,225.731903 960.160767,235.041428 
	C963.342651,238.315735 965.804382,238.190918 968.914185,234.999115 
	C977.857239,225.820358 986.997742,216.834396 996.010864,207.723343 
	C999.988098,203.702789 999.956787,202.365555 995.864380,198.241394 
	C988.129578,190.446396 980.340271,182.705460 972.074097,174.443970 
M357.152496,144.149460 
	C355.522308,140.141388 353.914185,136.124161 352.254059,132.128540 
	C351.174805,129.531006 349.388702,128.663177 346.661713,129.821503 
	C342.065979,131.773590 337.435486,133.645432 332.798645,135.498581 
	C330.095795,136.578796 329.334259,138.378113 330.454742,141.050308 
	C332.385468,145.654709 334.271912,150.277710 336.208130,154.879776 
	C337.308990,157.496338 339.130219,158.287445 341.827393,157.129150 
	C346.108215,155.290771 350.401947,153.474335 354.747864,151.798141 
	C358.315826,150.421982 359.379883,148.258255 357.152496,144.149460 
M798.580811,672.090088 
	C801.628906,671.065186 802.248779,669.063782 801.051941,666.211365 
	C799.118835,661.604004 797.512512,656.832947 795.205566,652.425598 
	C794.526978,651.129211 791.637878,649.830811 790.295654,650.248596 
	C785.386597,651.776123 780.591370,653.809631 776.008240,656.151367 
	C774.787109,656.775208 773.522400,659.479065 773.912048,660.711121 
	C775.513306,665.775085 777.746155,670.639221 779.743774,675.578003 
	C780.893555,678.420654 782.768250,678.602722 785.380127,677.442261 
	C789.487854,675.617126 793.711853,674.053833 798.580811,672.090088 
z"/>
<path fill="#5CA3D9" opacity="1.000000" stroke="none" 
	d="
M1.000000,582.468628 
	C14.261356,579.448853 27.274672,581.843689 40.109085,584.612061 
	C70.962669,591.267273 100.178558,587.205566 127.350677,571.312988 
	C145.715805,560.571533 161.011185,546.715149 169.904922,526.454041 
	C178.156036,507.656921 196.550247,503.694550 213.116394,516.130920 
	C233.581665,531.494385 242.850204,559.357605 236.156265,585.479675 
	C235.164642,589.349365 234.109299,593.205261 232.974213,597.035095 
	C229.792358,607.770874 231.476242,617.798523 237.407104,627.150024 
	C241.150635,633.052551 245.227005,638.745178 248.928711,644.672729 
	C269.907196,678.265869 251.324661,721.852722 212.543030,729.952942 
	C203.262817,731.891235 193.865036,733.263977 184.577560,735.170776 
	C168.389496,738.494385 157.519394,748.043152 152.014786,763.661621 
	C151.461990,765.230042 150.779205,766.752747 150.078369,768.648315 
	C123.979103,769.000000 97.958214,769.000000 71.378174,768.674194 
	C63.937939,760.924561 57.239197,753.320984 50.136585,746.115601 
	C36.670547,732.454773 20.550283,724.956360 1.000000,726.000000 
	C1.000000,678.312439 1.000000,630.624878 1.000000,582.468628 
z"/>
<path fill="#5CA3D9" opacity="1.000000" stroke="none" 
	d="
M80.531342,0.999999 
	C92.785774,9.662622 104.530884,18.381252 116.367020,26.974501 
	C133.337036,39.295048 150.499710,51.353642 167.352158,63.831940 
	C192.999146,82.822083 190.300720,121.324371 161.443863,134.789856 
	C108.515617,159.487808 54.994999,182.916306 1.360674,206.937027 
	C1.000000,138.438492 1.000000,69.876999 1.000000,1.000000 
	C27.353388,1.000000 53.708035,1.000000 80.531342,0.999999 
z"/>
<path fill="#2D516E" opacity="1.000000" stroke="none" 
	d="
M1.000000,726.468628 
	C20.550283,724.956360 36.670547,732.454773 50.136585,746.115601 
	C57.239197,753.320984 63.937939,760.924561 70.909515,768.674194 
	C47.757366,769.000000 24.514732,769.000000 1.000000,769.000000 
	C1.000000,754.980286 1.000000,740.958801 1.000000,726.468628 
z"/>
<path fill="#2E3A55" opacity="1.000000" stroke="none" 
	d="
M830.139771,690.248169 
	C838.244507,671.577515 849.123474,655.396729 865.228027,643.240540 
	C887.257385,626.612061 911.945496,617.597656 939.752808,616.847290 
	C959.314697,616.319275 978.320862,618.554382 996.793274,625.018738 
	C998.972656,625.781372 1001.169556,626.689697 1003.094421,627.937561 
	C1006.020691,629.834595 1007.046936,632.349731 1005.871216,636.078369 
	C1001.527649,649.853516 1001.291992,650.071167 987.380737,645.788757 
	C966.301758,639.299927 944.632629,637.680786 923.121521,641.451660 
	C896.410645,646.134094 873.690186,658.549377 858.934998,682.387512 
	C851.273193,694.765747 845.598755,708.091858 843.201233,722.638855 
	C842.257202,728.366943 840.699951,729.388611 835.134216,728.800415 
	C824.078918,727.632080 821.693542,724.670837 824.001526,713.772156 
	C825.652405,705.976318 827.972290,698.322144 830.139771,690.248169 
z"/>
<path fill="#4981AB" opacity="1.000000" stroke="none" 
	d="
M960.873657,49.813446 
	C964.844482,41.897327 968.645996,34.311390 972.484863,26.744370 
	C977.043213,17.759081 985.362671,14.670673 993.634460,18.858097 
	C1001.520203,22.850105 1004.098145,31.576435 999.774780,40.210316 
	C991.804138,56.127838 983.767639,72.012627 975.700073,87.881317 
	C971.018005,97.090904 962.646423,100.191597 954.124329,95.999359 
	C946.190552,92.096519 943.832825,83.373894 948.414124,74.136223 
	C952.406189,66.086838 956.610352,58.142651 960.873657,49.813446 
z"/>
<path fill="#3D6A8C" opacity="1.000000" stroke="none" 
	d="
M746.103943,153.944824 
	C736.136414,145.891235 728.372070,136.668839 726.342957,123.958450 
	C723.999390,109.278168 726.935913,95.822304 737.182007,84.528946 
	C738.902222,82.632935 740.712646,80.146599 743.844116,82.693550 
	C748.959229,86.853951 750.278503,90.363770 747.697632,93.796654 
	C738.491699,106.041389 736.779968,118.950256 744.583252,132.444336 
	C753.249084,147.429947 772.626343,152.444611 787.664978,143.862518 
	C792.388733,141.166794 799.457764,144.495911 800.058350,150.023056 
	C800.198486,151.312469 798.637695,153.355042 797.317139,154.148666 
	C780.386414,164.323929 763.373413,164.503296 746.103943,153.944824 
z"/>
<path fill="#2E3A55" opacity="1.000000" stroke="none" 
	d="
M842.626770,111.395355 
	C855.450256,125.966095 860.006165,142.851120 858.978699,161.566528 
	C858.764343,165.471268 857.336304,167.979553 853.007996,167.852768 
	C848.597839,167.723587 848.316772,164.602127 848.001465,161.247513 
	C847.381165,154.647491 847.129028,147.934402 845.669617,141.507660 
	C842.400330,127.111206 835.133240,114.983383 821.375549,108.573029 
	C814.776917,105.498428 807.093140,104.720528 799.866272,103.051895 
	C798.280640,102.685776 796.548462,102.941895 794.883667,102.933884 
	C791.821594,102.919144 789.691956,101.733887 789.401917,98.418533 
	C789.111145,95.093788 790.985535,93.512321 794.035889,93.081696 
	C807.808716,91.137329 820.555664,94.045631 832.014587,101.820587 
	C835.825806,104.406532 838.956421,107.995514 842.626770,111.395355 
z"/>
<path fill="#DEAA56" opacity="1.000000" stroke="none" 
	d="
M972.323853,174.693008 
	C980.340271,182.705460 988.129578,190.446396 995.864380,198.241394 
	C999.956787,202.365555 999.988098,203.702789 996.010864,207.723343 
	C986.997742,216.834396 977.857239,225.820358 968.914185,234.999115 
	C965.804382,238.190918 963.342651,238.315735 960.160767,235.041428 
	C951.114136,225.731903 941.933350,216.548920 932.647583,207.477692 
	C929.370728,204.276566 929.593872,201.789948 932.760376,198.692963 
	C941.683105,189.966034 950.415222,181.044449 959.252136,172.229355 
	C964.412292,167.081863 964.752625,167.109543 969.967407,172.313293 
	C970.674377,173.018753 971.372131,173.733505 972.323853,174.693008 
M972.430237,178.072739 
	C965.898438,169.592941 964.866394,169.366241 957.055725,176.944733 
	C950.148621,183.646454 943.715027,190.833298 936.928650,197.663132 
	C931.818176,202.806381 931.593811,203.878891 936.519592,208.963013 
	C943.329590,215.991837 950.209106,222.956329 957.181396,229.823944 
	C962.171448,234.739120 968.021484,233.541809 971.457581,227.190704 
	C971.865173,226.437271 972.886108,226.028488 973.586548,225.418442 
	C978.106689,221.481781 982.639954,217.559555 987.117188,213.574493 
	C988.601318,212.253540 989.725220,210.418991 991.376526,209.417007 
	C995.038330,207.195129 995.972839,201.381088 993.045044,198.549438 
	C986.252869,191.980164 979.580322,185.287231 972.430237,178.072739 
z"/>
<path fill="#4A81AA" opacity="1.000000" stroke="none" 
	d="
M357.291443,144.495789 
	C359.379883,148.258255 358.315826,150.421982 354.747864,151.798141 
	C350.401947,153.474335 346.108215,155.290771 341.827393,157.129150 
	C339.130219,158.287445 337.308990,157.496338 336.208130,154.879776 
	C334.271912,150.277710 332.385468,145.654709 330.454742,141.050308 
	C329.334259,138.378113 330.095795,136.578796 332.798645,135.498581 
	C337.435486,133.645432 342.065979,131.773590 346.661713,129.821503 
	C349.388702,128.663177 351.174805,129.531006 352.254059,132.128540 
	C353.914185,136.124161 355.522308,140.141388 357.291443,144.495789 
z"/>
<path fill="#4A81AA" opacity="1.000000" stroke="none" 
	d="
M798.233765,672.234863 
	C793.711853,674.053833 789.487854,675.617126 785.380127,677.442261 
	C782.768250,678.602722 780.893555,678.420654 779.743774,675.578003 
	C777.746155,670.639221 775.513306,665.775085 773.912048,660.711121 
	C773.522400,659.479065 774.787109,656.775208 776.008240,656.151367 
	C780.591370,653.809631 785.386597,651.776123 790.295654,650.248596 
	C791.637878,649.830811 794.526978,651.129211 795.205566,652.425598 
	C797.512512,656.832947 799.118835,661.604004 801.051941,666.211365 
	C802.248779,669.063782 801.628906,671.065186 798.233765,672.234863 
z"/>
<path fill="#FDAC32" opacity="1.000000" stroke="none" 
	d="
M972.644775,178.358612 
	C979.580322,185.287231 986.252869,191.980164 993.045044,198.549438 
	C995.972839,201.381088 995.038330,207.195129 991.376526,209.417007 
	C989.725220,210.418991 988.601318,212.253540 987.117188,213.574493 
	C982.639954,217.559555 978.106689,221.481781 973.586548,225.418442 
	C972.886108,226.028488 971.865173,226.437271 971.457581,227.190704 
	C968.021484,233.541809 962.171448,234.739120 957.181396,229.823944 
	C950.209106,222.956329 943.329590,215.991837 936.519592,208.963013 
	C931.593811,203.878891 931.818176,202.806381 936.928650,197.663132 
	C943.715027,190.833298 950.148621,183.646454 957.055725,176.944733 
	C964.866394,169.366241 965.898438,169.592941 972.644775,178.358612 
z"/>
</svg>